<?xml version="1.0" encoding="UTF-8"?> <svg xmlns="http://www.w3.org/2000/svg" width="107" height="107" viewBox="0 0 107 107" fill="none"> <circle cx="53.5" cy="53.5" r="53.5" fill="#FFFAF9"></circle> <mask id="path-2-inside-1" fill="white"> <path fill-rule="evenodd" clip-rule="evenodd" d="M73.9976 26.9028H80.8493C81.4857 26.9028 82.0016 27.4188 82.0016 28.0552V42.5842C82.0016 43.2207 81.4857 43.7366 80.8493 43.7366H70.1826C68.6591 45.9877 65.9959 48.0529 62.9852 48.0529C62.6576 48.0529 62.3415 48.0388 62.037 48.0125L50.3213 59.728C49.8641 60.1852 49.0424 60.079 48.6915 59.728L26.7633 37.7998C26.2686 37.3051 26.3482 36.5852 26.7633 36.17L39.596 23.3375C40.046 22.8875 40.7756 22.8875 41.2256 23.3375L45.1344 27.2461L49.7715 25.5858C53.0525 24.0989 56.1244 25.0063 57.2964 25.4674C57.3136 25.4741 57.3304 25.4811 57.3471 25.4888C60.948 27.1077 62.9474 28.2607 64.2704 29.0236C65.9905 30.0155 66.6066 30.3707 68.4797 30.5342V30.2025C68.4797 29.5661 68.9956 29.0502 69.632 29.0502H72.8452V28.0552C72.8452 27.4188 73.3611 26.9028 73.9976 26.9028ZM43.0372 28.4085L40.4107 25.782L37.7842 28.4085C38.5649 28.8915 39.4675 29.1497 40.4107 29.1497C41.3538 29.1497 42.2564 28.8914 43.0372 28.4085ZM29.208 36.9848L31.8345 39.6115C32.3174 38.8306 32.5757 37.928 32.5757 36.9848C32.5757 36.0417 32.3173 35.1391 31.8345 34.3584L29.208 36.9848ZM46.8805 54.6573L49.5065 57.2834L52.1324 54.6573C50.529 53.6679 48.4838 53.6679 46.8805 54.6573ZM45.2202 52.9972C47.7668 51.15 51.2462 51.15 53.7928 52.9972L56.4244 50.3655C55.2143 48.6888 54.7657 46.5542 55.2037 44.5251L51.3128 43.2046C51.0205 44.3205 50.4368 45.3445 49.6036 46.1777C48.323 47.4583 46.6408 48.0986 44.9586 48.0986C43.2764 48.0986 41.5943 47.4582 40.3138 46.1777C37.7525 43.6164 37.7525 39.4491 40.3137 36.8878C41.2577 35.9439 42.4611 35.3146 43.761 35.0739C44.1645 34.24 44.8126 33.5508 45.6387 33.0905C46.1277 32.818 46.6522 32.6407 47.19 32.5613L44.6975 30.0689C43.4599 30.9688 41.9733 31.4546 40.4108 31.4546C38.8483 31.4546 37.3617 30.9688 36.1241 30.0689L33.4947 32.6981C34.3947 33.9358 34.8804 35.4223 34.8804 36.9848C34.8804 38.5472 34.3946 40.0339 33.4947 41.2716L45.2202 52.9972ZM46.8171 41.6787C46.8068 41.6752 46.7967 41.6716 46.7865 41.6679C44.8209 40.9384 43.5463 39.3605 43.3336 37.5902C42.8179 37.8028 42.3446 38.1164 41.9436 38.5176C40.2809 40.1803 40.2809 42.8855 41.9436 44.548C43.606 46.2106 46.3113 46.2104 47.9739 44.548C48.5536 43.9682 48.9474 43.2462 49.1214 42.4608L46.8171 41.6787ZM57.3486 46.3085C57.3884 47.1528 57.6401 47.9801 58.0849 48.705L59.381 47.4089C58.5752 47.0986 57.9006 46.7076 57.3486 46.3085ZM62.9852 45.748C65.269 45.748 67.3873 43.9153 68.4795 42.1248V32.8433C65.9133 32.6314 65.0047 32.1074 63.1189 31.0199C61.7626 30.2378 59.9061 29.1674 56.4279 27.6023C55.5075 27.2444 53.1594 26.5648 50.6892 27.7002C50.6738 27.7072 50.6584 27.7139 50.6427 27.7202L50.6306 27.7251C50.6184 27.73 50.6032 27.7357 50.5909 27.7402L46.9369 29.0486L51.188 33.2997L51.1902 33.3019L51.2619 33.3735L59.4732 35.9756C60.0799 36.1679 60.4158 36.8156 60.2236 37.4223C60.0314 38.029 59.3837 38.3653 58.7769 38.1727L48.4524 34.901C47.8799 34.7423 47.2796 34.8141 46.7604 35.1035C46.2377 35.3947 45.8595 35.8717 45.6948 36.4467L45.694 36.4496L45.6933 36.452C45.339 37.7007 46.1119 38.9528 47.5741 39.5015L56.7364 42.6112C57.0171 42.7065 57.2372 42.8994 57.3715 43.1393C57.378 43.1489 57.4008 43.1794 57.4265 43.2136C57.4593 43.2574 57.4968 43.3073 57.51 43.3267C57.9512 43.8868 59.2899 45.3012 61.7786 45.6627L61.7831 45.6634C62.1575 45.7175 62.5579 45.748 62.9852 45.748ZM70.7844 41.4316H72.8452V31.3549H70.7844V41.4316ZM75.1499 41.4316H79.6969V29.2076H75.1499V41.4316ZM64.3772 38.156C64.3622 38.0822 64.3403 38.0096 64.3104 37.9393C64.2816 37.8702 64.247 37.8033 64.2044 37.7411C64.1629 37.6777 64.1145 37.619 64.0615 37.566C64.0085 37.5129 63.9497 37.4645 63.8863 37.4231C63.8241 37.3816 63.7572 37.3458 63.6881 37.317C63.6178 37.2882 63.5452 37.2652 63.4726 37.2514C63.3239 37.2214 63.1707 37.2214 63.022 37.2514C62.9483 37.2652 62.8757 37.2882 62.8065 37.317C62.7362 37.3458 62.6694 37.3816 62.6072 37.4231C62.5438 37.4645 62.485 37.5129 62.432 37.566C62.379 37.619 62.3306 37.6777 62.2891 37.7411C62.2476 37.8033 62.2119 37.8702 62.1831 37.9393C62.1543 38.0096 62.1312 38.0822 62.1174 38.156C62.1024 38.2297 62.0944 38.3058 62.0944 38.3807C62.0944 38.4556 62.1024 38.5316 62.1174 38.6054C62.1312 38.6791 62.1543 38.7517 62.1831 38.8209C62.2119 38.8912 62.2476 38.958 62.2891 39.0202C62.3306 39.0836 62.379 39.1424 62.432 39.1954C62.485 39.2484 62.5438 39.2968 62.6072 39.3383C62.6694 39.3798 62.7362 39.4155 62.8065 39.4443C62.8757 39.4731 62.9483 39.495 63.022 39.51C63.0958 39.525 63.1718 39.5331 63.2467 39.5331C63.3216 39.5331 63.3977 39.525 63.4726 39.51C63.5452 39.495 63.6178 39.4731 63.6881 39.4443C63.7572 39.4155 63.8241 39.3798 63.8863 39.3383C63.9497 39.2968 64.0085 39.2484 64.0615 39.1954C64.1145 39.1424 64.1629 39.0836 64.2044 39.0202C64.247 38.958 64.2816 38.8912 64.3104 38.8209C64.3403 38.7517 64.3622 38.6791 64.3772 38.6054C64.3922 38.5316 64.3991 38.4556 64.3991 38.3807C64.3991 38.3058 64.3922 38.2297 64.3772 38.156ZM75.9945 68.4799C75.9993 68.4911 76.004 68.5026 76.0084 68.5141C77.2924 71.8077 74.7651 74.0068 73.0692 74.787C73.0388 74.8011 73.0077 74.8138 72.9761 74.8251L55.2305 81.1788C53.8839 81.7892 52.5719 81.9963 51.4126 81.9963C49.7471 81.9963 48.3962 81.5692 47.7051 81.2974C47.6881 81.2907 47.6712 81.2835 47.6545 81.2761C44.0538 79.6571 42.0543 78.5041 40.7314 77.7413L40.7312 77.7411C39.011 76.7493 38.395 76.394 36.522 76.2306V76.5623C36.522 77.1987 36.0061 77.7146 35.3696 77.7146H32.1564V78.7096C32.1564 79.3461 31.6405 79.862 31.0041 79.862H24.1524C23.5159 79.862 23 79.3461 23 78.7096V64.1808C23 63.5443 23.5159 63.0284 24.1524 63.0284H34.8188C36.3424 60.7773 39.0057 58.712 42.0163 58.712C46.3242 58.712 48.625 61.1414 49.3595 62.0909L58.1845 65.0861C58.1948 65.0896 58.2049 65.0933 58.2151 65.0969C59.8521 65.7045 61.0099 66.9006 61.4741 68.3063L69.5025 66.0861C72.4463 65.0807 74.9339 65.998 75.9945 68.4799ZM25.3047 77.5571H29.8517V65.3331H25.3047V77.5571ZM32.1564 75.4098H34.2172V65.3331H32.1564V75.4098ZM54.4107 79.0241L72.1483 72.6732C72.6591 72.4296 74.6239 71.3433 73.8679 69.3684C73.1375 67.6863 71.4971 67.8402 70.2475 68.267L61.5951 70.6639C61.5747 70.7573 61.5512 70.8506 61.5247 70.944C61.1924 72.1131 60.4246 73.0827 59.363 73.6742C58.6764 74.0568 57.9198 74.2516 57.1549 74.2516C56.737 74.2516 56.3167 74.1936 55.9038 74.0761C55.8927 74.073 55.8818 74.0697 55.8708 74.0662L45.5284 70.7887C44.9216 70.5964 44.5856 69.9488 44.7779 69.3421C44.9701 68.7353 45.6175 68.3993 46.2246 68.5916L56.5491 71.8635C57.1214 72.0218 57.7217 71.9502 58.2411 71.6609C58.765 71.369 59.1439 70.8905 59.3079 70.3136C59.6632 69.0644 58.8901 67.8118 57.4274 67.2628L48.2689 64.1544C48.0146 64.0681 47.7983 63.8956 47.6576 63.6667C47.5924 63.5639 45.9328 61.0166 42.0164 61.0166C39.7326 61.0166 37.6143 62.8492 36.522 64.6396V73.921C39.088 74.1329 39.9967 74.6569 41.882 75.744L41.8827 75.7444C43.239 76.5265 45.0954 77.597 48.5735 79.162C49.4938 79.5198 51.842 80.1995 54.3123 79.0642C54.3277 79.0572 54.3432 79.0505 54.3588 79.0441L54.3818 79.035C54.3919 79.031 54.4021 79.0271 54.4107 79.0241ZM42.8186 67.9425C42.8474 68.0128 42.8693 68.0854 42.8842 68.1591C42.8992 68.2329 42.9073 68.3089 42.9073 68.3839C42.9073 68.4588 42.8992 68.5348 42.8842 68.6086C42.8693 68.6823 42.8474 68.7549 42.8186 68.8241C42.7897 68.8944 42.754 68.9612 42.7125 69.0234C42.6711 69.0868 42.6227 69.1456 42.5696 69.1986C42.5166 69.2516 42.4579 69.3 42.3945 69.3415C42.3323 69.383 42.2654 69.4188 42.1951 69.4476C42.126 69.4764 42.0534 69.4995 41.9796 69.5133C41.9059 69.5283 41.8298 69.5363 41.7549 69.5363C41.68 69.5363 41.604 69.5283 41.5302 69.5133C41.4564 69.4995 41.3838 69.4764 41.3136 69.4476C41.2444 69.4188 41.1776 69.3831 41.1153 69.3415C41.052 69.3 40.9932 69.2516 40.9402 69.1986C40.8872 69.1456 40.8388 69.0868 40.7973 69.0234C40.7547 68.9612 40.7201 68.8944 40.6913 68.8241C40.6625 68.7549 40.6394 68.6823 40.6256 68.6086C40.6106 68.5348 40.6025 68.4588 40.6025 68.3839C40.6025 68.3089 40.6106 68.2329 40.6256 68.1591C40.6394 68.0854 40.6625 68.0128 40.6913 67.9425C40.7201 67.8734 40.7547 67.8065 40.7973 67.7443C40.8388 67.6809 40.8872 67.6221 40.9402 67.5691C40.9932 67.5161 41.052 67.4677 41.1153 67.4262C41.1776 67.3847 41.2444 67.349 41.3136 67.3202C41.3838 67.2914 41.4564 67.2684 41.5302 67.2545C41.6777 67.2246 41.831 67.2246 41.9796 67.2545C42.0534 67.2684 42.126 67.2914 42.1951 67.3202C42.2654 67.349 42.3323 67.3847 42.3945 67.4262C42.4579 67.4677 42.5166 67.5161 42.5696 67.5691C42.6227 67.6221 42.6711 67.6809 42.7125 67.7443C42.754 67.8065 42.7897 67.8734 42.8186 67.9425Z"></path> </mask> <path fill-rule="evenodd" clip-rule="evenodd" d="M73.9976 26.9028H80.8493C81.4857 26.9028 82.0016 27.4188 82.0016 28.0552V42.5842C82.0016 43.2207 81.4857 43.7366 80.8493 43.7366H70.1826C68.6591 45.9877 65.9959 48.0529 62.9852 48.0529C62.6576 48.0529 62.3415 48.0388 62.037 48.0125L50.3213 59.728C49.8641 60.1852 49.0424 60.079 48.6915 59.728L26.7633 37.7998C26.2686 37.3051 26.3482 36.5852 26.7633 36.17L39.596 23.3375C40.046 22.8875 40.7756 22.8875 41.2256 23.3375L45.1344 27.2461L49.7715 25.5858C53.0525 24.0989 56.1244 25.0063 57.2964 25.4674C57.3136 25.4741 57.3304 25.4811 57.3471 25.4888C60.948 27.1077 62.9474 28.2607 64.2704 29.0236C65.9905 30.0155 66.6066 30.3707 68.4797 30.5342V30.2025C68.4797 29.5661 68.9956 29.0502 69.632 29.0502H72.8452V28.0552C72.8452 27.4188 73.3611 26.9028 73.9976 26.9028ZM43.0372 28.4085L40.4107 25.782L37.7842 28.4085C38.5649 28.8915 39.4675 29.1497 40.4107 29.1497C41.3538 29.1497 42.2564 28.8914 43.0372 28.4085ZM29.208 36.9848L31.8345 39.6115C32.3174 38.8306 32.5757 37.928 32.5757 36.9848C32.5757 36.0417 32.3173 35.1391 31.8345 34.3584L29.208 36.9848ZM46.8805 54.6573L49.5065 57.2834L52.1324 54.6573C50.529 53.6679 48.4838 53.6679 46.8805 54.6573ZM45.2202 52.9972C47.7668 51.15 51.2462 51.15 53.7928 52.9972L56.4244 50.3655C55.2143 48.6888 54.7657 46.5542 55.2037 44.5251L51.3128 43.2046C51.0205 44.3205 50.4368 45.3445 49.6036 46.1777C48.323 47.4583 46.6408 48.0986 44.9586 48.0986C43.2764 48.0986 41.5943 47.4582 40.3138 46.1777C37.7525 43.6164 37.7525 39.4491 40.3137 36.8878C41.2577 35.9439 42.4611 35.3146 43.761 35.0739C44.1645 34.24 44.8126 33.5508 45.6387 33.0905C46.1277 32.818 46.6522 32.6407 47.19 32.5613L44.6975 30.0689C43.4599 30.9688 41.9733 31.4546 40.4108 31.4546C38.8483 31.4546 37.3617 30.9688 36.1241 30.0689L33.4947 32.6981C34.3947 33.9358 34.8804 35.4223 34.8804 36.9848C34.8804 38.5472 34.3946 40.0339 33.4947 41.2716L45.2202 52.9972ZM46.8171 41.6787C46.8068 41.6752 46.7967 41.6716 46.7865 41.6679C44.8209 40.9384 43.5463 39.3605 43.3336 37.5902C42.8179 37.8028 42.3446 38.1164 41.9436 38.5176C40.2809 40.1803 40.2809 42.8855 41.9436 44.548C43.606 46.2106 46.3113 46.2104 47.9739 44.548C48.5536 43.9682 48.9474 43.2462 49.1214 42.4608L46.8171 41.6787ZM57.3486 46.3085C57.3884 47.1528 57.6401 47.9801 58.0849 48.705L59.381 47.4089C58.5752 47.0986 57.9006 46.7076 57.3486 46.3085ZM62.9852 45.748C65.269 45.748 67.3873 43.9153 68.4795 42.1248V32.8433C65.9133 32.6314 65.0047 32.1074 63.1189 31.0199C61.7626 30.2378 59.9061 29.1674 56.4279 27.6023C55.5075 27.2444 53.1594 26.5648 50.6892 27.7002C50.6738 27.7072 50.6584 27.7139 50.6427 27.7202L50.6306 27.7251C50.6184 27.73 50.6032 27.7357 50.5909 27.7402L46.9369 29.0486L51.188 33.2997L51.1902 33.3019L51.2619 33.3735L59.4732 35.9756C60.0799 36.1679 60.4158 36.8156 60.2236 37.4223C60.0314 38.029 59.3837 38.3653 58.7769 38.1727L48.4524 34.901C47.8799 34.7423 47.2796 34.8141 46.7604 35.1035C46.2377 35.3947 45.8595 35.8717 45.6948 36.4467L45.694 36.4496L45.6933 36.452C45.339 37.7007 46.1119 38.9528 47.5741 39.5015L56.7364 42.6112C57.0171 42.7065 57.2372 42.8994 57.3715 43.1393C57.378 43.1489 57.4008 43.1794 57.4265 43.2136C57.4593 43.2574 57.4968 43.3073 57.51 43.3267C57.9512 43.8868 59.2899 45.3012 61.7786 45.6627L61.7831 45.6634C62.1575 45.7175 62.5579 45.748 62.9852 45.748ZM70.7844 41.4316H72.8452V31.3549H70.7844V41.4316ZM75.1499 41.4316H79.6969V29.2076H75.1499V41.4316ZM64.3772 38.156C64.3622 38.0822 64.3403 38.0096 64.3104 37.9393C64.2816 37.8702 64.247 37.8033 64.2044 37.7411C64.1629 37.6777 64.1145 37.619 64.0615 37.566C64.0085 37.5129 63.9497 37.4645 63.8863 37.4231C63.8241 37.3816 63.7572 37.3458 63.6881 37.317C63.6178 37.2882 63.5452 37.2652 63.4726 37.2514C63.3239 37.2214 63.1707 37.2214 63.022 37.2514C62.9483 37.2652 62.8757 37.2882 62.8065 37.317C62.7362 37.3458 62.6694 37.3816 62.6072 37.4231C62.5438 37.4645 62.485 37.5129 62.432 37.566C62.379 37.619 62.3306 37.6777 62.2891 37.7411C62.2476 37.8033 62.2119 37.8702 62.1831 37.9393C62.1543 38.0096 62.1312 38.0822 62.1174 38.156C62.1024 38.2297 62.0944 38.3058 62.0944 38.3807C62.0944 38.4556 62.1024 38.5316 62.1174 38.6054C62.1312 38.6791 62.1543 38.7517 62.1831 38.8209C62.2119 38.8912 62.2476 38.958 62.2891 39.0202C62.3306 39.0836 62.379 39.1424 62.432 39.1954C62.485 39.2484 62.5438 39.2968 62.6072 39.3383C62.6694 39.3798 62.7362 39.4155 62.8065 39.4443C62.8757 39.4731 62.9483 39.495 63.022 39.51C63.0958 39.525 63.1718 39.5331 63.2467 39.5331C63.3216 39.5331 63.3977 39.525 63.4726 39.51C63.5452 39.495 63.6178 39.4731 63.6881 39.4443C63.7572 39.4155 63.8241 39.3798 63.8863 39.3383C63.9497 39.2968 64.0085 39.2484 64.0615 39.1954C64.1145 39.1424 64.1629 39.0836 64.2044 39.0202C64.247 38.958 64.2816 38.8912 64.3104 38.8209C64.3403 38.7517 64.3622 38.6791 64.3772 38.6054C64.3922 38.5316 64.3991 38.4556 64.3991 38.3807C64.3991 38.3058 64.3922 38.2297 64.3772 38.156ZM75.9945 68.4799C75.9993 68.4911 76.004 68.5026 76.0084 68.5141C77.2924 71.8077 74.7651 74.0068 73.0692 74.787C73.0388 74.8011 73.0077 74.8138 72.9761 74.8251L55.2305 81.1788C53.8839 81.7892 52.5719 81.9963 51.4126 81.9963C49.7471 81.9963 48.3962 81.5692 47.7051 81.2974C47.6881 81.2907 47.6712 81.2835 47.6545 81.2761C44.0538 79.6571 42.0543 78.5041 40.7314 77.7413L40.7312 77.7411C39.011 76.7493 38.395 76.394 36.522 76.2306V76.5623C36.522 77.1987 36.0061 77.7146 35.3696 77.7146H32.1564V78.7096C32.1564 79.3461 31.6405 79.862 31.0041 79.862H24.1524C23.5159 79.862 23 79.3461 23 78.7096V64.1808C23 63.5443 23.5159 63.0284 24.1524 63.0284H34.8188C36.3424 60.7773 39.0057 58.712 42.0163 58.712C46.3242 58.712 48.625 61.1414 49.3595 62.0909L58.1845 65.0861C58.1948 65.0896 58.2049 65.0933 58.2151 65.0969C59.8521 65.7045 61.0099 66.9006 61.4741 68.3063L69.5025 66.0861C72.4463 65.0807 74.9339 65.998 75.9945 68.4799ZM25.3047 77.5571H29.8517V65.3331H25.3047V77.5571ZM32.1564 75.4098H34.2172V65.3331H32.1564V75.4098ZM54.4107 79.0241L72.1483 72.6732C72.6591 72.4296 74.6239 71.3433 73.8679 69.3684C73.1375 67.6863 71.4971 67.8402 70.2475 68.267L61.5951 70.6639C61.5747 70.7573 61.5512 70.8506 61.5247 70.944C61.1924 72.1131 60.4246 73.0827 59.363 73.6742C58.6764 74.0568 57.9198 74.2516 57.1549 74.2516C56.737 74.2516 56.3167 74.1936 55.9038 74.0761C55.8927 74.073 55.8818 74.0697 55.8708 74.0662L45.5284 70.7887C44.9216 70.5964 44.5856 69.9488 44.7779 69.3421C44.9701 68.7353 45.6175 68.3993 46.2246 68.5916L56.5491 71.8635C57.1214 72.0218 57.7217 71.9502 58.2411 71.6609C58.765 71.369 59.1439 70.8905 59.3079 70.3136C59.6632 69.0644 58.8901 67.8118 57.4274 67.2628L48.2689 64.1544C48.0146 64.0681 47.7983 63.8956 47.6576 63.6667C47.5924 63.5639 45.9328 61.0166 42.0164 61.0166C39.7326 61.0166 37.6143 62.8492 36.522 64.6396V73.921C39.088 74.1329 39.9967 74.6569 41.882 75.744L41.8827 75.7444C43.239 76.5265 45.0954 77.597 48.5735 79.162C49.4938 79.5198 51.842 80.1995 54.3123 79.0642C54.3277 79.0572 54.3432 79.0505 54.3588 79.0441L54.3818 79.035C54.3919 79.031 54.4021 79.0271 54.4107 79.0241ZM42.8186 67.9425C42.8474 68.0128 42.8693 68.0854 42.8842 68.1591C42.8992 68.2329 42.9073 68.3089 42.9073 68.3839C42.9073 68.4588 42.8992 68.5348 42.8842 68.6086C42.8693 68.6823 42.8474 68.7549 42.8186 68.8241C42.7897 68.8944 42.754 68.9612 42.7125 69.0234C42.6711 69.0868 42.6227 69.1456 42.5696 69.1986C42.5166 69.2516 42.4579 69.3 42.3945 69.3415C42.3323 69.383 42.2654 69.4188 42.1951 69.4476C42.126 69.4764 42.0534 69.4995 41.9796 69.5133C41.9059 69.5283 41.8298 69.5363 41.7549 69.5363C41.68 69.5363 41.604 69.5283 41.5302 69.5133C41.4564 69.4995 41.3838 69.4764 41.3136 69.4476C41.2444 69.4188 41.1776 69.3831 41.1153 69.3415C41.052 69.3 40.9932 69.2516 40.9402 69.1986C40.8872 69.1456 40.8388 69.0868 40.7973 69.0234C40.7547 68.9612 40.7201 68.8944 40.6913 68.8241C40.6625 68.7549 40.6394 68.6823 40.6256 68.6086C40.6106 68.5348 40.6025 68.4588 40.6025 68.3839C40.6025 68.3089 40.6106 68.2329 40.6256 68.1591C40.6394 68.0854 40.6625 68.0128 40.6913 67.9425C40.7201 67.8734 40.7547 67.8065 40.7973 67.7443C40.8388 67.6809 40.8872 67.6221 40.9402 67.5691C40.9932 67.5161 41.052 67.4677 41.1153 67.4262C41.1776 67.3847 41.2444 67.349 41.3136 67.3202C41.3838 67.2914 41.4564 67.2684 41.5302 67.2545C41.6777 67.2246 41.831 67.2246 41.9796 67.2545C42.0534 67.2684 42.126 67.2914 42.1951 67.3202C42.2654 67.349 42.3323 67.3847 42.3945 67.4262C42.4579 67.4677 42.5166 67.5161 42.5696 67.5691C42.6227 67.6221 42.6711 67.6809 42.7125 67.7443C42.754 67.8065 42.7897 67.8734 42.8186 67.9425Z" fill="black"></path> <path d="M70.1826 43.7366V43.3366H69.9704L69.8514 43.5124L70.1826 43.7366ZM62.037 48.0125L62.0713 47.614L61.8858 47.598L61.7541 47.7297L62.037 48.0125ZM50.3213 59.728L50.6041 60.0109L50.6042 60.0109L50.3213 59.728ZM48.6915 59.728L48.9744 59.4452L48.9744 59.4452L48.6915 59.728ZM26.7633 37.7998L27.0462 37.517L27.0462 37.517L26.7633 37.7998ZM26.7633 36.17L26.4805 35.8872L26.4805 35.8872L26.7633 36.17ZM39.596 23.3375L39.8788 23.6203L39.8788 23.6203L39.596 23.3375ZM41.2256 23.3375L40.9428 23.6203L40.9428 23.6203L41.2256 23.3375ZM45.1344 27.2461L44.8515 27.529L45.0307 27.7081L45.2692 27.6227L45.1344 27.2461ZM49.7715 25.5858L49.9064 25.9624L49.9218 25.9569L49.9367 25.9501L49.7715 25.5858ZM57.2964 25.4674L57.15 25.8397L57.1513 25.8402L57.2964 25.4674ZM57.3471 25.4888L57.1814 25.8528L57.1831 25.8536L57.3471 25.4888ZM64.2704 29.0236L64.4702 28.677L64.4702 28.677L64.2704 29.0236ZM68.4797 30.5342L68.4449 30.9327L68.8797 30.9706V30.5342H68.4797ZM72.8452 29.0502V29.4502H73.2452V29.0502H72.8452ZM40.4107 25.782L40.6935 25.4992L40.4107 25.2163L40.1278 25.4992L40.4107 25.782ZM43.0372 28.4085L43.2476 28.7487L43.6773 28.483L43.32 28.1257L43.0372 28.4085ZM37.7842 28.4085L37.5013 28.1257L37.1441 28.4829L37.5738 28.7487L37.7842 28.4085ZM31.8345 39.6115L31.5516 39.8943L31.9089 40.2516L32.1747 39.8219L31.8345 39.6115ZM29.208 36.9848L28.9251 36.702L28.6423 36.9848L28.9251 37.2677L29.208 36.9848ZM31.8345 34.3584L32.1747 34.148L31.9089 33.7182L31.5516 34.0755L31.8345 34.3584ZM49.5065 57.2834L49.2236 57.5662L49.5065 57.8491L49.7893 57.5662L49.5065 57.2834ZM46.8805 54.6573L46.6704 54.3169L46.24 54.5825L46.5976 54.9402L46.8805 54.6573ZM52.1324 54.6573L52.4153 54.9402L52.7729 54.5825L52.3425 54.3169L52.1324 54.6573ZM53.7928 52.9972L53.5579 53.321L53.8342 53.5214L54.0756 53.2801L53.7928 52.9972ZM45.2202 52.9972L44.9374 53.2801L45.1788 53.5214L45.4551 53.321L45.2202 52.9972ZM56.4244 50.3655L56.7073 50.6484L56.9481 50.4076L56.7488 50.1314L56.4244 50.3655ZM55.2037 44.5251L55.5947 44.6095L55.67 44.2609L55.3323 44.1463L55.2037 44.5251ZM51.3128 43.2046L51.4414 42.8258L51.0347 42.6878L50.9259 43.1032L51.3128 43.2046ZM49.6036 46.1777L49.8865 46.4605L49.8865 46.4605L49.6036 46.1777ZM40.3138 46.1777L40.5966 45.8948L40.5966 45.8948L40.3138 46.1777ZM40.3137 36.8878L40.0308 36.605L40.0308 36.605L40.3137 36.8878ZM43.761 35.0739L43.8338 35.4672L44.0329 35.4303L44.121 35.2481L43.761 35.0739ZM45.6387 33.0905L45.8334 33.4399L45.8334 33.4399L45.6387 33.0905ZM47.19 32.5613L47.2484 32.9571L48.0352 32.8409L47.4728 32.2785L47.19 32.5613ZM44.6975 30.0689L44.9804 29.786L44.7387 29.5444L44.4623 29.7453L44.6975 30.0689ZM36.1241 30.0689L36.3593 29.7453L36.0829 29.5444L35.8412 29.786L36.1241 30.0689ZM33.4947 32.6981L33.2119 32.4153L32.9702 32.657L33.1712 32.9334L33.4947 32.6981ZM33.4947 41.2716L33.1712 41.0363L32.9702 41.3128L33.2119 41.5544L33.4947 41.2716ZM46.7865 41.6679L46.6474 42.0429L46.6499 42.0438L46.7865 41.6679ZM46.8171 41.6787L46.9456 41.2999L46.9449 41.2997L46.8171 41.6787ZM43.3336 37.5902L43.7307 37.5425L43.6679 37.0197L43.1811 37.2204L43.3336 37.5902ZM41.9436 38.5176L42.2264 38.8005L42.2265 38.8004L41.9436 38.5176ZM41.9436 44.548L42.2264 44.2652L42.2264 44.2651L41.9436 44.548ZM47.9739 44.548L48.2568 44.8309L48.2568 44.8308L47.9739 44.548ZM49.1214 42.4608L49.5119 42.5473L49.5895 42.1973L49.2499 42.082L49.1214 42.4608ZM58.0849 48.705L57.744 48.9142L58.0092 49.3464L58.3677 48.9878L58.0849 48.705ZM57.3486 46.3085L57.583 45.9843L56.91 45.4978L56.9491 46.3273L57.3486 46.3085ZM59.381 47.4089L59.6638 47.6917L60.0988 47.2567L59.5247 47.0356L59.381 47.4089ZM68.4795 42.1248L68.821 42.3331L68.8795 42.2372V42.1248H68.4795ZM68.4795 32.8433H68.8795V32.475L68.5125 32.4447L68.4795 32.8433ZM63.1189 31.0199L63.3188 30.6734L63.3187 30.6734L63.1189 31.0199ZM56.4279 27.6023L56.592 27.2376L56.5825 27.2333L56.5729 27.2295L56.4279 27.6023ZM50.6892 27.7002L50.8559 28.0637L50.8562 28.0636L50.6892 27.7002ZM50.6427 27.7202L50.7913 28.0916L50.7927 28.091L50.6427 27.7202ZM50.6306 27.7251L50.4821 27.3537L50.4803 27.3544L50.6306 27.7251ZM50.5909 27.7402L50.7257 28.1167L50.7279 28.116L50.5909 27.7402ZM46.9369 29.0486L46.8021 28.672L46.2075 28.8849L46.6541 29.3314L46.9369 29.0486ZM51.1902 33.3019L51.4731 33.019L51.4731 33.019L51.1902 33.3019ZM51.2619 33.3735L50.9791 33.6564L51.0481 33.7254L51.1411 33.7548L51.2619 33.3735ZM59.4732 35.9756L59.594 35.5943L59.594 35.5943L59.4732 35.9756ZM60.2236 37.4223L59.8423 37.3015L59.8423 37.3015L60.2236 37.4223ZM58.7769 38.1727L58.8979 37.7915L58.8977 37.7914L58.7769 38.1727ZM48.4524 34.901L48.5732 34.5197L48.5663 34.5175L48.5593 34.5155L48.4524 34.901ZM46.7604 35.1035L46.9551 35.4529L46.9551 35.4529L46.7604 35.1035ZM45.6948 36.4467L45.3102 36.3366L45.3095 36.3391L45.6948 36.4467ZM45.694 36.4496L46.0785 36.5596L46.0792 36.5572L45.694 36.4496ZM45.6933 36.452L45.3087 36.3419L45.3085 36.3428L45.6933 36.452ZM47.5741 39.5015L47.4334 39.8762L47.4455 39.8803L47.5741 39.5015ZM56.7364 42.6112L56.865 42.2324L56.8649 42.2324L56.7364 42.6112ZM57.3715 43.1393L57.0224 43.3347L57.0311 43.3502L57.0411 43.3648L57.3715 43.1393ZM57.4265 43.2136L57.7465 42.9736L57.7465 42.9736L57.4265 43.2136ZM57.51 43.3267L57.1792 43.5516L57.1871 43.5632L57.1958 43.5743L57.51 43.3267ZM61.7786 45.6627L61.8393 45.2673L61.8361 45.2668L61.7786 45.6627ZM61.7831 45.6634L61.7224 46.0588L61.7258 46.0593L61.7831 45.6634ZM72.8452 41.4316V41.8316H73.2452V41.4316H72.8452ZM70.7844 41.4316H70.3844V41.8316H70.7844V41.4316ZM72.8452 31.3549H73.2452V30.9549H72.8452V31.3549ZM70.7844 31.3549V30.9549H70.3844V31.3549H70.7844ZM79.6969 41.4316V41.8316H80.0969V41.4316H79.6969ZM75.1499 41.4316H74.7499V41.8316H75.1499V41.4316ZM79.6969 29.2076H80.0969V28.8076H79.6969V29.2076ZM75.1499 29.2076V28.8076H74.7499V29.2076H75.1499ZM64.3104 37.9393L63.9411 38.0932L63.9424 38.0962L64.3104 37.9393ZM64.3772 38.156L64.7692 38.0763L64.7692 38.0763L64.3772 38.156ZM64.2044 37.7411L63.8696 37.9602L63.8744 37.9672L64.2044 37.7411ZM64.0615 37.566L63.7786 37.8488L63.7786 37.8488L64.0615 37.566ZM63.8863 37.4231L63.6644 37.7559L63.6672 37.7577L63.8863 37.4231ZM63.6881 37.317L63.8419 36.9478L63.8398 36.9469L63.6881 37.317ZM63.4726 37.2514L63.3936 37.6435L63.3978 37.6443L63.4726 37.2514ZM63.022 37.2514L63.0957 37.6445L63.1011 37.6435L63.022 37.2514ZM62.8065 37.317L62.9582 37.6872L62.9604 37.6863L62.8065 37.317ZM62.6072 37.4231L62.8262 37.7577L62.8291 37.7559L62.6072 37.4231ZM62.432 37.566L62.7148 37.8488L62.7149 37.8488L62.432 37.566ZM62.2891 37.7411L62.6219 37.963L62.6238 37.9602L62.2891 37.7411ZM62.1831 37.9393L61.8139 37.7855L61.813 37.7876L62.1831 37.9393ZM62.1174 38.156L62.5094 38.2356L62.5106 38.2297L62.1174 38.156ZM62.1174 38.6054L62.5106 38.5317L62.5094 38.5258L62.1174 38.6054ZM62.1831 38.8209L62.5532 38.6692L62.5523 38.667L62.1831 38.8209ZM62.2891 39.0202L62.6238 38.8012L62.6219 38.7984L62.2891 39.0202ZM62.6072 39.3383L62.8291 39.0055L62.8262 39.0036L62.6072 39.3383ZM62.8065 39.4443L62.9604 39.0751L62.9582 39.0742L62.8065 39.4443ZM63.022 39.51L63.1016 39.118L63.1016 39.118L63.022 39.51ZM63.4726 39.51L63.551 39.9022L63.5534 39.9018L63.4726 39.51ZM63.6881 39.4443L63.8398 39.8145L63.8419 39.8136L63.6881 39.4443ZM63.8863 39.3383L63.6672 39.0036L63.6644 39.0055L63.8863 39.3383ZM64.2044 39.0202L63.8743 38.7941L63.8697 38.8012L64.2044 39.0202ZM64.3104 38.8209L63.9433 38.6618L63.9403 38.6692L64.3104 38.8209ZM64.3772 38.6054L64.7692 38.685L64.7692 38.685L64.3772 38.6054ZM76.0084 68.5141L76.3811 68.3688L76.3811 68.3688L76.0084 68.5141ZM75.9945 68.4799L75.6267 68.637L75.6268 68.6374L75.9945 68.4799ZM73.0692 74.787L72.902 74.4236L72.9014 74.4239L73.0692 74.787ZM72.9761 74.8251L72.8414 74.4484L72.8412 74.4485L72.9761 74.8251ZM55.2305 81.1788L55.0957 80.8022L55.0803 80.8077L55.0654 80.8145L55.2305 81.1788ZM47.7051 81.2974L47.5583 81.6695L47.5587 81.6696L47.7051 81.2974ZM47.6545 81.2761L47.4905 81.6409L47.4908 81.641L47.6545 81.2761ZM40.7314 77.7413L40.9312 77.3947L40.9298 77.394L40.7314 77.7413ZM40.7312 77.7411L40.5313 78.0877L40.5327 78.0884L40.7312 77.7411ZM36.522 76.2306L36.5567 75.8321L36.122 75.7942V76.2306H36.522ZM32.1564 77.7146V77.3146H31.7564V77.7146H32.1564ZM34.8188 63.0284V63.4284H35.031L35.15 63.2526L34.8188 63.0284ZM49.3595 62.0909L49.0432 62.3356L49.1169 62.4309L49.231 62.4696L49.3595 62.0909ZM58.1845 65.0861L58.056 65.4649L58.0568 65.4652L58.1845 65.0861ZM58.2151 65.0969L58.3543 64.7219L58.3517 64.721L58.2151 65.0969ZM61.4741 68.3063L61.0943 68.4317L61.2137 68.7933L61.5807 68.6918L61.4741 68.3063ZM69.5025 66.0861L69.6091 66.4717L69.6205 66.4685L69.6318 66.4647L69.5025 66.0861ZM29.8517 77.5571V77.9571H30.2517V77.5571H29.8517ZM25.3047 77.5571H24.9047V77.9571H25.3047V77.5571ZM29.8517 65.3331H30.2517V64.9331H29.8517V65.3331ZM25.3047 65.3331V64.9331H24.9047V65.3331H25.3047ZM34.2172 75.4098V75.8098H34.6172V75.4098H34.2172ZM32.1564 75.4098H31.7564V75.8098H32.1564V75.4098ZM34.2172 65.3331H34.6172V64.9331H34.2172V65.3331ZM32.1564 65.3331V64.9331H31.7564V65.3331H32.1564ZM72.1483 72.6732L72.2832 73.0498L72.3022 73.043L72.3205 73.0343L72.1483 72.6732ZM54.4107 79.0241L54.5447 79.401L54.5456 79.4007L54.4107 79.0241ZM73.8679 69.3684L74.2415 69.2254L74.2383 69.2172L74.2348 69.2091L73.8679 69.3684ZM70.2475 68.267L70.3543 68.6525L70.3656 68.6493L70.3768 68.6455L70.2475 68.267ZM61.5951 70.6639L61.4883 70.2785L61.2558 70.3429L61.2043 70.5786L61.5951 70.6639ZM61.5247 70.944L61.9095 71.0534L61.9095 71.0532L61.5247 70.944ZM59.363 73.6742L59.1683 73.3248L59.1683 73.3248L59.363 73.6742ZM55.9038 74.0761L56.0132 73.6914L56.0121 73.6911L55.9038 74.0761ZM55.8708 74.0662L55.75 74.4475L55.7504 74.4477L55.8708 74.0662ZM45.5284 70.7887L45.4075 71.1701L45.4075 71.1701L45.5284 70.7887ZM44.7779 69.3421L45.1592 69.4629L45.1593 69.4629L44.7779 69.3421ZM46.2246 68.5916L46.3455 68.2103L46.3454 68.2103L46.2246 68.5916ZM56.5491 71.8635L56.4283 72.2448L56.4353 72.247L56.4424 72.249L56.5491 71.8635ZM58.2411 71.6609L58.4358 72.0103L58.4358 72.0103L58.2411 71.6609ZM59.3079 70.3136L58.9231 70.2042L58.9231 70.2043L59.3079 70.3136ZM57.4274 67.2628L57.5681 66.8881L57.556 66.8841L57.4274 67.2628ZM48.2689 64.1544L48.3975 63.7756L48.3975 63.7756L48.2689 64.1544ZM47.6576 63.6667L47.9984 63.4572L47.9953 63.4524L47.6576 63.6667ZM36.522 64.6396L36.1805 64.4312L36.122 64.5272V64.6396H36.522ZM36.522 73.921H36.122V74.2894L36.489 74.3197L36.522 73.921ZM41.882 75.744L41.6822 76.0906L41.6842 76.0917L41.882 75.744ZM41.8827 75.7444L42.0825 75.3979L42.0805 75.3968L41.8827 75.7444ZM48.5735 79.162L48.4094 79.5268L48.4189 79.5311L48.4286 79.5348L48.5735 79.162ZM54.3123 79.0642L54.1456 78.7006L54.1453 78.7007L54.3123 79.0642ZM54.3588 79.0441L54.2108 78.6725L54.2079 78.6737L54.3588 79.0441ZM54.3818 79.035L54.2364 78.6623L54.2338 78.6634L54.3818 79.035ZM42.8842 68.1591L42.4922 68.2388L42.4922 68.2388L42.8842 68.1591ZM42.8186 67.9425L43.1887 67.7908L43.1878 67.7886L42.8186 67.9425ZM42.8842 68.6086L42.4922 68.5289L42.4922 68.5289L42.8842 68.6086ZM42.8186 68.8241L42.4493 68.6702L42.4484 68.6724L42.8186 68.8241ZM42.7125 69.0234L42.3797 68.8015L42.3779 68.8044L42.7125 69.0234ZM42.5696 69.1986L42.8525 69.4814L42.8525 69.4814L42.5696 69.1986ZM42.3945 69.3415L42.1754 69.0068L42.1726 69.0087L42.3945 69.3415ZM42.1951 69.4476L42.0434 69.0775L42.0413 69.0784L42.1951 69.4476ZM41.9796 69.5133L41.9059 69.1201L41.9 69.1213L41.9796 69.5133ZM41.5302 69.5133L41.6099 69.1213L41.6039 69.1201L41.5302 69.5133ZM41.3136 69.4476L41.1597 69.8169L41.1619 69.8177L41.3136 69.4476ZM41.1153 69.3415L41.3377 69.0089L41.3344 69.0068L41.1153 69.3415ZM40.9402 69.1986L40.6573 69.4814L40.6573 69.4814L40.9402 69.1986ZM40.7973 69.0234L41.132 68.8043L41.1273 68.7973L40.7973 69.0234ZM40.6913 68.8241L41.0614 68.6724L41.0605 68.6702L40.6913 68.8241ZM40.6256 68.6086L41.0188 68.5348L41.0176 68.5289L40.6256 68.6086ZM40.6256 68.1591L41.0176 68.2388L41.0187 68.2329L40.6256 68.1591ZM40.6913 67.9425L40.322 67.7886L40.3212 67.7908L40.6913 67.9425ZM40.7973 67.7443L41.1273 67.9704L41.132 67.9633L40.7973 67.7443ZM41.1153 67.4262L41.3344 67.7609L41.3372 67.759L41.1153 67.4262ZM41.3136 67.3202L41.1619 66.9501L41.1597 66.951L41.3136 67.3202ZM41.5302 67.2545L41.6039 67.6477L41.6098 67.6465L41.5302 67.2545ZM41.9796 67.2545L41.9006 67.6467L41.9059 67.6477L41.9796 67.2545ZM42.1951 67.3202L42.0413 67.6895L42.0434 67.6903L42.1951 67.3202ZM42.3945 67.4262L42.1726 67.7591L42.1754 67.7609L42.3945 67.4262ZM42.5696 67.5691L42.8525 67.2863L42.8525 67.2863L42.5696 67.5691ZM42.7125 67.7443L42.3778 67.9634L42.3797 67.9662L42.7125 67.7443ZM80.8493 26.5028H73.9976V27.3028H80.8493V26.5028ZM82.4016 28.0552C82.4016 27.1978 81.7066 26.5028 80.8493 26.5028V27.3028C81.2648 27.3028 81.6016 27.6397 81.6016 28.0552H82.4016ZM82.4016 42.5842V28.0552H81.6016V42.5842H82.4016ZM80.8493 44.1366C81.7066 44.1366 82.4016 43.4416 82.4016 42.5842H81.6016C81.6016 42.9998 81.2648 43.3366 80.8493 43.3366V44.1366ZM70.1826 44.1366H80.8493V43.3366H70.1826V44.1366ZM62.9852 48.4529C66.1766 48.4529 68.9476 46.2751 70.5139 43.9608L69.8514 43.5124C68.3706 45.7002 65.8153 47.6529 62.9852 47.6529V48.4529ZM62.0026 48.411C62.3185 48.4383 62.6461 48.4529 62.9852 48.4529V47.6529C62.6692 47.6529 62.3646 47.6393 62.0713 47.614L62.0026 48.411ZM50.6042 60.0109L62.3198 48.2953L61.7541 47.7297L50.0385 59.4452L50.6042 60.0109ZM48.4086 60.0108C48.6709 60.2732 49.068 60.4142 49.4492 60.4307C49.837 60.4475 50.2769 60.338 50.6041 60.0109L50.0385 59.4451C49.9085 59.5751 49.7089 59.6412 49.4838 59.6314C49.2522 59.6214 49.063 59.5339 48.9744 59.4452L48.4086 60.0108ZM26.4805 38.0827L48.4087 60.0109L48.9744 59.4452L27.0462 37.517L26.4805 38.0827ZM26.4805 35.8872C25.9276 36.4402 25.8118 37.4139 26.4805 38.0827L27.0462 37.517C26.7254 37.1962 26.7689 36.7302 27.0462 36.4528L26.4805 35.8872ZM39.3131 23.0547L26.4805 35.8872L27.0462 36.4528L39.8788 23.6203L39.3131 23.0547ZM41.5085 23.0547C40.9023 22.4484 39.9193 22.4484 39.3131 23.0547L39.8788 23.6203C40.1726 23.3266 40.649 23.3266 40.9428 23.6203L41.5085 23.0547ZM45.4172 26.9633L41.5085 23.0547L40.9428 23.6203L44.8515 27.529L45.4172 26.9633ZM49.6367 25.2092L44.9995 26.8695L45.2692 27.6227L49.9064 25.9624L49.6367 25.2092ZM57.4429 25.0952C56.2301 24.618 53.0322 23.6689 49.6064 25.2215L49.9367 25.9501C53.0728 24.5288 56.0186 25.3945 57.15 25.8397L57.4429 25.0952ZM57.5128 25.1247C57.4885 25.1136 57.4648 25.1037 57.4415 25.0947L57.1513 25.8402C57.1624 25.8445 57.1723 25.8487 57.1814 25.8528L57.5128 25.1247ZM64.4702 28.677C63.1413 27.9107 61.129 26.7505 57.5112 25.1239L57.1831 25.8536C60.767 27.4649 62.7536 28.6107 64.0706 29.3701L64.4702 28.677ZM68.5144 30.1357C67.6011 30.056 67.0187 29.9317 66.4619 29.7165C65.8936 29.4967 65.3385 29.1777 64.4702 28.677L64.0706 29.3701C64.9224 29.8613 65.5354 30.2159 66.1734 30.4626C66.823 30.7138 67.4852 30.8489 68.4449 30.9327L68.5144 30.1357ZM68.0797 30.2025V30.5342H68.8797V30.2025H68.0797ZM69.632 28.6502C68.7747 28.6502 68.0797 29.3452 68.0797 30.2025H68.8797C68.8797 29.787 69.2165 29.4502 69.632 29.4502V28.6502ZM72.8452 28.6502H69.632V29.4502H72.8452V28.6502ZM72.4452 28.0552V29.0502H73.2452V28.0552H72.4452ZM73.9976 26.5028C73.1402 26.5028 72.4452 27.1978 72.4452 28.0552H73.2452C73.2452 27.6397 73.582 27.3028 73.9976 27.3028V26.5028ZM40.1278 26.0649L42.7543 28.6914L43.32 28.1257L40.6935 25.4992L40.1278 26.0649ZM38.067 28.6914L40.6935 26.0649L40.1278 25.4992L37.5013 28.1257L38.067 28.6914ZM40.4107 28.7497C39.5412 28.7497 38.7117 28.5119 37.9946 28.0684L37.5738 28.7487C38.4182 29.2711 39.3937 29.5497 40.4107 29.5497V28.7497ZM42.8268 28.0683C42.1097 28.5118 41.28 28.7497 40.4107 28.7497V29.5497C41.4276 29.5497 42.4032 29.2709 43.2476 28.7487L42.8268 28.0683ZM32.1173 39.3286L29.4908 36.702L28.9251 37.2677L31.5516 39.8943L32.1173 39.3286ZM32.1757 36.9848C32.1757 37.8542 31.9379 38.6839 31.4943 39.401L32.1747 39.8219C32.697 38.9773 32.9757 38.0017 32.9757 36.9848H32.1757ZM31.4943 34.5688C31.9378 35.2858 32.1757 36.1156 32.1757 36.9848H32.9757C32.9757 35.9679 32.6969 34.9923 32.1747 34.148L31.4943 34.5688ZM29.4908 37.2677L32.1173 34.6412L31.5516 34.0755L28.9251 36.702L29.4908 37.2677ZM49.7893 57.0005L47.1633 54.3745L46.5976 54.9402L49.2236 57.5662L49.7893 57.0005ZM51.8496 54.3745L49.2236 57.0005L49.7893 57.5662L52.4153 54.9402L51.8496 54.3745ZM47.0905 54.9977C48.5651 54.0878 50.4477 54.0878 51.9224 54.9977L52.3425 54.3169C50.6103 53.248 48.4025 53.248 46.6704 54.3169L47.0905 54.9977ZM54.0276 52.6734C51.341 50.7246 47.672 50.7246 44.9854 52.6734L45.4551 53.321C47.8615 51.5754 51.1515 51.5754 53.5579 53.321L54.0276 52.6734ZM56.1416 50.0827L53.5099 52.7144L54.0756 53.2801L56.7073 50.6484L56.1416 50.0827ZM54.8127 44.4407C54.3508 46.5806 54.8237 48.831 56.1001 50.5996L56.7488 50.1314C55.605 48.5466 55.1806 46.5277 55.5947 44.6095L54.8127 44.4407ZM51.1843 43.5833L55.0752 44.9038L55.3323 44.1463L51.4414 42.8258L51.1843 43.5833ZM49.8865 46.4605C50.7698 45.5772 51.3894 44.4905 51.6998 43.3059L50.9259 43.1032C50.6515 44.1505 50.1038 45.1119 49.3208 45.8948L49.8865 46.4605ZM44.9586 48.4986C46.7421 48.4986 48.5276 47.8194 49.8865 46.4605L49.3208 45.8948C48.1184 47.0972 46.5394 47.6986 44.9586 47.6986V48.4986ZM40.0309 46.4605C41.3897 47.8193 43.175 48.4986 44.9586 48.4986V47.6986C43.3778 47.6986 41.7989 47.0971 40.5966 45.8948L40.0309 46.4605ZM40.0308 36.605C37.3134 39.3225 37.3134 43.7431 40.0309 46.4605L40.5966 45.8948C38.1915 43.4898 38.1915 39.5757 40.5965 37.1707L40.0308 36.605ZM43.6881 34.6806C42.309 34.936 41.0323 35.6036 40.0308 36.605L40.5965 37.1707C41.4831 36.2842 42.6132 35.6932 43.8338 35.4672L43.6881 34.6806ZM45.444 32.7411C44.5464 33.2412 43.8404 33.9915 43.4009 34.8996L44.121 35.2481C44.4886 34.4885 45.0789 33.8603 45.8334 33.4399L45.444 32.7411ZM47.1316 32.1656C46.5456 32.2521 45.975 32.4452 45.4439 32.7411L45.8334 33.4399C46.2804 33.1908 46.7587 33.0293 47.2484 32.9571L47.1316 32.1656ZM44.4147 30.3517L46.9071 32.8442L47.4728 32.2785L44.9804 29.786L44.4147 30.3517ZM40.4108 31.8546C42.0573 31.8546 43.6263 31.3423 44.9327 30.3924L44.4623 29.7453C43.2934 30.5953 41.8893 31.0546 40.4108 31.0546V31.8546ZM35.8888 30.3924C37.1952 31.3423 38.7642 31.8546 40.4108 31.8546V31.0546C38.9323 31.0546 37.5282 30.5953 36.3593 29.7453L35.8888 30.3924ZM33.7775 32.981L36.4069 30.3517L35.8412 29.786L33.2119 32.4153L33.7775 32.981ZM35.2804 36.9848C35.2804 35.3383 34.7682 33.7693 33.8182 32.4629L33.1712 32.9334C34.0212 34.1023 34.4804 35.5064 34.4804 36.9848H35.2804ZM33.8182 41.5068C34.7681 40.2004 35.2804 38.6313 35.2804 36.9848H34.4804C34.4804 38.4632 34.0211 39.8674 33.1712 41.0363L33.8182 41.5068ZM45.5031 52.7144L33.7775 40.9887L33.2119 41.5544L44.9374 53.2801L45.5031 52.7144ZM46.6499 42.0438C46.6593 42.0472 46.6738 42.0525 46.6893 42.0577L46.9449 41.2997C46.9398 41.298 46.9341 41.2959 46.9232 41.2919L46.6499 42.0438ZM42.9364 37.6379C43.1691 39.5744 44.5585 41.2677 46.6474 42.0429L46.9257 41.2929C45.0834 40.6092 43.9235 39.1465 43.7307 37.5425L42.9364 37.6379ZM42.2265 38.8004C42.5899 38.4368 43.0187 38.1527 43.486 37.96L43.1811 37.2204C42.617 37.453 42.0993 37.796 41.6606 38.2349L42.2265 38.8004ZM42.2264 44.2651C40.72 42.7588 40.72 40.3069 42.2264 38.8005L41.6607 38.2348C39.8419 40.0536 39.8419 43.0121 41.6607 44.8309L42.2264 44.2651ZM47.6911 44.2651C46.1846 45.7714 43.7326 45.7716 42.2264 44.2652L41.6607 44.8308C43.4794 46.6497 46.438 46.6494 48.2568 44.8309L47.6911 44.2651ZM48.7308 42.3743C48.5733 43.0852 48.2169 43.7392 47.6911 44.2652L48.2568 44.8308C48.8903 44.1972 49.3214 43.4071 49.5119 42.5473L48.7308 42.3743ZM46.6885 42.0575L48.9928 42.8396L49.2499 42.082L46.9456 41.2999L46.6885 42.0575ZM58.4258 48.4957C58.0167 47.829 57.7848 47.0674 57.7482 46.2897L56.9491 46.3273C56.992 47.2383 57.2635 48.1312 57.744 48.9142L58.4258 48.4957ZM59.0981 47.126L57.802 48.4221L58.3677 48.9878L59.6638 47.6917L59.0981 47.126ZM57.1143 46.6326C57.6912 47.0497 58.396 47.4582 59.2372 47.7822L59.5247 47.0356C58.7545 46.739 58.1101 46.3654 57.583 45.9843L57.1143 46.6326ZM68.1381 41.9165C67.6179 42.7692 66.8511 43.6342 65.9462 44.2827C65.0405 44.9318 64.0199 45.348 62.9852 45.348V46.148C64.2343 46.148 65.4148 45.6478 66.4122 44.933C67.4105 44.2175 68.249 43.2709 68.821 42.3331L68.1381 41.9165ZM68.0795 32.8433V42.1248H68.8795V32.8433H68.0795ZM62.9191 31.3664C63.8555 31.9065 64.5835 32.3274 65.4038 32.6346C66.2319 32.9446 67.1391 33.134 68.4466 33.242L68.5125 32.4447C67.2538 32.3407 66.4236 32.1622 65.6843 31.8854C64.9373 31.6057 64.268 31.2209 63.3188 30.6734L62.9191 31.3664ZM56.2638 27.9671C59.7252 29.5246 61.5689 30.5879 62.9191 31.3664L63.3187 30.6734C61.9562 29.8877 60.087 28.8101 56.592 27.2376L56.2638 27.9671ZM50.8562 28.0636C53.181 26.9952 55.402 27.6326 56.2829 27.9751L56.5729 27.2295C55.6129 26.8562 53.1379 26.1345 50.5221 27.3367L50.8562 28.0636ZM50.7927 28.091C50.8143 28.0823 50.8354 28.0732 50.8559 28.0637L50.5224 27.3366C50.5123 27.3412 50.5025 27.3455 50.4928 27.3494L50.7927 28.091ZM50.7792 28.0964L50.7913 28.0916L50.4942 27.3488L50.4821 27.3537L50.7792 28.0964ZM50.7279 28.116C50.7408 28.1113 50.7617 28.1036 50.781 28.0957L50.4803 27.3544C50.4752 27.3565 50.4657 27.3601 50.4539 27.3643L50.7279 28.116ZM47.0718 29.4251L50.7257 28.1167L50.456 27.3636L46.8021 28.672L47.0718 29.4251ZM51.4709 33.0168L47.2198 28.7657L46.6541 29.3314L50.9052 33.5825L51.4709 33.0168ZM51.4731 33.019L51.4709 33.0168L50.9052 33.5825L50.9074 33.5847L51.4731 33.019ZM51.5447 33.0907L51.4731 33.019L50.9074 33.5847L50.9791 33.6564L51.5447 33.0907ZM59.594 35.5943L51.3827 32.9922L51.1411 33.7548L59.3523 36.3569L59.594 35.5943ZM60.6049 37.5431C60.8638 36.7258 60.4113 35.8534 59.594 35.5943L59.3523 36.3569C59.7484 36.4825 59.9678 36.9053 59.8423 37.3015L60.6049 37.5431ZM58.6559 38.554C59.4736 38.8134 60.346 38.3603 60.6049 37.5431L59.8423 37.3015C59.7167 37.6977 59.2939 37.9171 58.8979 37.7915L58.6559 38.554ZM48.3316 35.2823L58.6561 38.554L58.8977 37.7914L48.5732 34.5197L48.3316 35.2823ZM46.9551 35.4529C47.3825 35.2147 47.8745 35.1559 48.3456 35.2865L48.5593 34.5155C47.8854 34.3288 47.1768 34.4135 46.5657 34.7541L46.9551 35.4529ZM46.0793 36.5568C46.2149 36.0835 46.5249 35.6926 46.9551 35.4529L46.5657 34.754C45.9505 35.0968 45.504 35.6598 45.3102 36.3366L46.0793 36.5568ZM46.0792 36.5572L46.08 36.5543L45.3095 36.3391L45.3087 36.3419L46.0792 36.5572ZM46.0778 36.562L46.0785 36.5596L45.3094 36.3395L45.3087 36.3419L46.0778 36.562ZM47.7146 39.127C46.387 38.6287 45.7967 37.5531 46.0781 36.5612L45.3085 36.3428C44.8814 37.8483 45.8369 39.2768 47.4335 39.876L47.7146 39.127ZM56.8649 42.2324L47.7026 39.1227L47.4455 39.8803L56.6078 42.99L56.8649 42.2324ZM57.7205 42.944C57.5398 42.6211 57.2428 42.3607 56.865 42.2324L56.6078 42.99C56.7914 43.0523 56.9346 43.1777 57.0224 43.3347L57.7205 42.944ZM57.7465 42.9736C57.7335 42.9563 57.7219 42.9408 57.7127 42.9285C57.7082 42.9223 57.7046 42.9176 57.7021 42.9141C57.6988 42.9096 57.6995 42.9104 57.7018 42.9138L57.0411 43.3648C57.0542 43.384 57.0855 43.4257 57.1064 43.4535L57.7465 42.9736ZM57.8407 43.1018C57.8208 43.0724 57.7752 43.0118 57.7465 42.9736L57.1064 43.4535C57.1231 43.4757 57.1399 43.4982 57.1543 43.5176C57.1615 43.5272 57.1675 43.5355 57.1723 43.5421C57.1777 43.5494 57.1795 43.5521 57.1792 43.5516L57.8407 43.1018ZM61.8361 45.2668C59.483 44.925 58.2272 43.5907 57.8242 43.0792L57.1958 43.5743C57.6752 44.1828 59.0968 45.6773 61.7211 46.0585L61.8361 45.2668ZM61.8438 45.268L61.8393 45.2673L61.7179 46.0581L61.7224 46.0588L61.8438 45.268ZM62.9852 45.348C62.577 45.348 62.1957 45.3189 61.8404 45.2675L61.7258 46.0593C62.1193 46.1162 62.5389 46.148 62.9852 46.148V45.348ZM72.8452 41.0316H70.7844V41.8316H72.8452V41.0316ZM72.4452 31.3549V41.4316H73.2452V31.3549H72.4452ZM70.7844 31.7549H72.8452V30.9549H70.7844V31.7549ZM71.1844 41.4316V31.3549H70.3844V41.4316H71.1844ZM79.6969 41.0316H75.1499V41.8316H79.6969V41.0316ZM79.2969 29.2076V41.4316H80.0969V29.2076H79.2969ZM75.1499 29.6076H79.6969V28.8076H75.1499V29.6076ZM75.5499 41.4316V29.2076H74.7499V41.4316H75.5499ZM63.9424 38.0962C63.9609 38.1397 63.9752 38.1862 63.9852 38.2356L64.7692 38.0763C64.7493 37.9783 64.7197 37.8796 64.6784 37.7825L63.9424 38.0962ZM63.8744 37.9672C63.8986 38.0025 63.9207 38.0442 63.9411 38.0932L64.6796 37.7855C64.6424 37.6962 64.5954 37.6041 64.5343 37.515L63.8744 37.9672ZM63.7786 37.8488C63.8133 37.8835 63.8441 37.9211 63.8697 37.9602L64.539 37.5221C64.4817 37.4344 64.4156 37.3544 64.3443 37.2831L63.7786 37.8488ZM63.6672 37.7577C63.7063 37.7833 63.7439 37.8141 63.7786 37.8488L64.3443 37.2831C64.273 37.2118 64.193 37.1458 64.1054 37.0884L63.6672 37.7577ZM63.5342 37.6863C63.5797 37.7052 63.6238 37.7288 63.6644 37.7559L64.1082 37.0902C64.0244 37.0344 63.9347 36.9865 63.8419 36.9478L63.5342 37.6863ZM63.3978 37.6443C63.4389 37.6521 63.4856 37.6663 63.5364 37.6872L63.8398 36.9469C63.75 36.9101 63.6515 36.8782 63.5474 36.8584L63.3978 37.6443ZM63.1011 37.6435C63.1975 37.624 63.2971 37.624 63.3936 37.6435L63.5516 36.8592C63.3508 36.8188 63.1438 36.8188 62.943 36.8592L63.1011 37.6435ZM62.9604 37.6863C63.0082 37.6663 63.0539 37.6524 63.0957 37.6445L62.9483 36.8582C62.8427 36.878 62.7431 36.9101 62.6527 36.9478L62.9604 37.6863ZM62.8291 37.7559C62.8695 37.7289 62.9129 37.7057 62.9582 37.6872L62.6548 36.9469C62.5596 36.986 62.4693 37.0343 62.3853 37.0902L62.8291 37.7559ZM62.7149 37.8488C62.7496 37.8141 62.7871 37.7833 62.8262 37.7577L62.3881 37.0884C62.3004 37.1458 62.2205 37.2118 62.1492 37.2831L62.7149 37.8488ZM62.6238 37.9602C62.6494 37.9211 62.6801 37.8835 62.7148 37.8488L62.1492 37.2831C62.0779 37.3544 62.0118 37.4344 61.9544 37.5221L62.6238 37.9602ZM62.5523 38.0932C62.5713 38.0477 62.5948 38.0036 62.6219 37.963L61.9563 37.5192C61.9004 37.603 61.8525 37.6927 61.8139 37.7855L62.5523 38.0932ZM62.5106 38.2297C62.5184 38.1879 62.5325 38.1416 62.5532 38.091L61.813 37.7876C61.7761 37.8776 61.7441 37.9766 61.7243 38.0823L62.5106 38.2297ZM62.4944 38.3807C62.4944 38.334 62.4994 38.2847 62.5094 38.2356L61.7254 38.0763C61.7054 38.1748 61.6944 38.2775 61.6944 38.3807H62.4944ZM62.5094 38.5258C62.4994 38.4767 62.4944 38.4273 62.4944 38.3807H61.6944C61.6944 38.4839 61.7054 38.5866 61.7254 38.685L62.5094 38.5258ZM62.5523 38.667C62.5324 38.6192 62.5184 38.5736 62.5106 38.5317L61.7243 38.6791C61.7441 38.7847 61.7762 38.8843 61.8139 38.9747L62.5523 38.667ZM62.6219 38.7984C62.5949 38.7579 62.5718 38.7145 62.5532 38.6692L61.813 38.9726C61.852 39.0679 61.9003 39.1582 61.9563 39.2421L62.6219 38.7984ZM62.7148 38.9126C62.6801 38.8778 62.6494 38.8403 62.6238 38.8012L61.9544 39.2393C62.0118 39.327 62.0779 39.407 62.1492 39.4783L62.7148 38.9126ZM62.8262 39.0036C62.7871 38.978 62.7496 38.9473 62.7148 38.9126L62.1492 39.4783C62.2205 39.5495 62.3004 39.6156 62.3881 39.673L62.8262 39.0036ZM62.9582 39.0742C62.9129 39.0556 62.8695 39.0325 62.8291 39.0055L62.3853 39.6711C62.4692 39.7271 62.5596 39.7754 62.6548 39.8144L62.9582 39.0742ZM63.1016 39.118C63.052 39.1079 63.0044 39.0934 62.9604 39.0751L62.6527 39.8136C62.747 39.8528 62.8445 39.8821 62.9424 39.902L63.1016 39.118ZM63.2467 39.1331C63.2001 39.1331 63.1507 39.128 63.1016 39.118L62.9424 39.902C63.0408 39.922 63.1436 39.9331 63.2467 39.9331V39.1331ZM63.3942 39.1178C63.3429 39.128 63.2932 39.1331 63.2467 39.1331V39.9331C63.3501 39.9331 63.4524 39.922 63.551 39.9022L63.3942 39.1178ZM63.5364 39.0742C63.4895 39.0934 63.4407 39.1082 63.3918 39.1183L63.5534 39.9018C63.6497 39.8819 63.746 39.8529 63.8398 39.8144L63.5364 39.0742ZM63.6644 39.0055C63.6238 39.0326 63.5797 39.0561 63.5343 39.0751L63.8419 39.8136C63.9347 39.7749 64.0244 39.727 64.1082 39.6711L63.6644 39.0055ZM63.7786 38.9126C63.7439 38.9473 63.7063 38.978 63.6672 39.0036L64.1054 39.673C64.193 39.6156 64.273 39.5495 64.3443 39.4783L63.7786 38.9126ZM63.8697 38.8012C63.8441 38.8403 63.8133 38.8778 63.7786 38.9126L64.3443 39.4783C64.4156 39.407 64.4817 39.327 64.539 39.2393L63.8697 38.8012ZM63.9403 38.6692C63.9203 38.718 63.8985 38.759 63.8744 38.7941L64.5343 39.2464C64.5955 39.157 64.6429 39.0644 64.6805 38.9726L63.9403 38.6692ZM63.9852 38.5258C63.9751 38.5754 63.961 38.6211 63.9434 38.6619L64.6774 38.9799C64.7196 38.8824 64.7493 38.7829 64.7692 38.685L63.9852 38.5258ZM63.9991 38.3807C63.9991 38.4314 63.9944 38.4806 63.9852 38.5258L64.7692 38.685C64.79 38.5826 64.7991 38.4797 64.7991 38.3807H63.9991ZM63.9852 38.2356C63.9944 38.2807 63.9991 38.3299 63.9991 38.3807H64.7991C64.7991 38.2816 64.79 38.1787 64.7692 38.0763L63.9852 38.2356ZM76.3811 68.3688C76.3755 68.3543 76.3692 68.3386 76.3622 68.3223L75.6268 68.6374C75.6295 68.6436 75.6324 68.6508 75.6358 68.6594L76.3811 68.3688ZM73.2364 75.1504C74.1344 74.7373 75.2578 73.9485 75.9924 72.8099C76.7386 71.6535 77.0741 70.1463 76.3811 68.3688L75.6358 68.6594C76.2268 70.1754 75.9406 71.4146 75.3202 72.3762C74.6882 73.3557 73.7 74.0565 72.902 74.4236L73.2364 75.1504ZM73.1108 75.2017C73.1533 75.1865 73.1954 75.1693 73.237 75.1501L72.9014 74.4239C72.8821 74.4328 72.862 74.441 72.8414 74.4484L73.1108 75.2017ZM55.3654 81.5554L73.1109 75.2016L72.8412 74.4485L55.0957 80.8022L55.3654 81.5554ZM51.4126 82.3963C52.62 82.3963 53.9896 82.1804 55.3957 81.5431L55.0654 80.8145C53.7781 81.398 52.5238 81.5963 51.4126 81.5963V82.3963ZM47.5587 81.6696C48.2791 81.953 49.6812 82.3963 51.4126 82.3963V81.5963C49.8129 81.5963 48.5133 81.1854 47.8515 80.9251L47.5587 81.6696ZM47.4908 81.641C47.513 81.651 47.5355 81.6605 47.5583 81.6695L47.8519 80.9253C47.8407 80.9209 47.8294 80.9161 47.8182 80.9111L47.4908 81.641ZM40.5315 78.0878C41.8605 78.8541 43.8728 80.0143 47.4905 81.6409L47.8185 80.9112C44.2348 79.2999 42.2481 78.1542 40.9312 77.3947L40.5315 78.0878ZM40.5327 78.0884L40.5329 78.0886L40.9298 77.394L40.9296 77.3938L40.5327 78.0884ZM36.4872 76.6291C37.4005 76.7088 37.9829 76.833 38.5396 77.0483C39.108 77.268 39.6631 77.587 40.5313 78.0877L40.931 77.3946C40.0791 76.9034 39.4661 76.5488 38.8282 76.3021C38.1786 76.0509 37.5164 75.9158 36.5567 75.8321L36.4872 76.6291ZM36.922 76.5623V76.2306H36.122V76.5623H36.922ZM35.3696 78.1146C36.227 78.1146 36.922 77.4196 36.922 76.5623H36.122C36.122 76.9778 35.7851 77.3146 35.3696 77.3146V78.1146ZM32.1564 78.1146H35.3696V77.3146H32.1564V78.1146ZM32.5564 78.7096V77.7146H31.7564V78.7096H32.5564ZM31.0041 80.262C31.8614 80.262 32.5564 79.567 32.5564 78.7096H31.7564C31.7564 79.1251 31.4196 79.462 31.0041 79.462V80.262ZM24.1524 80.262H31.0041V79.462H24.1524V80.262ZM22.6 78.7096C22.6 79.567 23.295 80.262 24.1524 80.262V79.462C23.7368 79.462 23.4 79.1251 23.4 78.7096H22.6ZM22.6 64.1808V78.7096H23.4V64.1808H22.6ZM24.1524 62.6284C23.295 62.6284 22.6 63.3234 22.6 64.1808H23.4C23.4 63.7653 23.7368 63.4284 24.1524 63.4284V62.6284ZM34.8188 62.6284H24.1524V63.4284H34.8188V62.6284ZM42.0163 58.312C38.825 58.312 36.054 60.4898 34.4875 62.8042L35.15 63.2526C36.6309 61.0647 39.1863 59.112 42.0163 59.112V58.312ZM49.6759 61.8461C48.8996 60.8426 46.4945 58.312 42.0163 58.312V59.112C46.1539 59.112 48.3505 61.4402 49.0432 62.3356L49.6759 61.8461ZM58.3131 64.7073L49.4881 61.7121L49.231 62.4696L58.056 65.4649L58.3131 64.7073ZM58.3517 64.721C58.3425 64.7177 58.3278 64.7123 58.3123 64.707L58.0568 65.4652C58.0618 65.4668 58.0674 65.4689 58.0785 65.4729L58.3517 64.721ZM61.8539 68.1809C61.3481 66.649 60.0943 65.3677 58.3543 64.7219L58.0759 65.4719C59.61 66.0413 60.6718 67.1522 61.0943 68.4317L61.8539 68.1809ZM69.3959 65.7006L61.3675 67.9208L61.5807 68.6918L69.6091 66.4717L69.3959 65.7006ZM76.3623 68.3227C75.7922 66.9885 74.8266 66.0548 73.5931 65.5999C72.3658 65.1474 70.9112 65.1823 69.3732 65.7076L69.6318 66.4647C71.0377 65.9845 72.2987 65.9753 73.3163 66.3505C74.3277 66.7235 75.1362 67.4893 75.6267 68.637L76.3623 68.3227ZM29.8517 77.1571H25.3047V77.9571H29.8517V77.1571ZM29.4517 65.3331V77.5571H30.2517V65.3331H29.4517ZM25.3047 65.7331H29.8517V64.9331H25.3047V65.7331ZM25.7047 77.5571V65.3331H24.9047V77.5571H25.7047ZM34.2172 75.0098H32.1564V75.8098H34.2172V75.0098ZM33.8172 65.3331V75.4098H34.6172V65.3331H33.8172ZM32.1564 65.7331H34.2172V64.9331H32.1564V65.7331ZM32.5564 75.4098V65.3331H31.7564V75.4098H32.5564ZM72.0135 72.2966L54.2759 78.6475L54.5456 79.4007L72.2832 73.0498L72.0135 72.2966ZM73.4943 69.5114C73.809 70.3334 73.5664 70.9485 73.1767 71.4129C72.7709 71.8966 72.213 72.1992 71.9761 72.3122L72.3205 73.0343C72.5945 72.9036 73.2743 72.5412 73.7896 71.9271C74.321 71.2938 74.6828 70.3783 74.2415 69.2254L73.4943 69.5114ZM70.3768 68.6455C70.9753 68.4411 71.6216 68.3197 72.1815 68.4205C72.7116 68.516 73.1907 68.8132 73.501 69.5278L74.2348 69.2091C73.8147 68.2416 73.1084 67.7746 72.3233 67.6332C71.568 67.4972 70.7693 67.6661 70.1182 67.8885L70.3768 68.6455ZM61.7019 71.0494L70.3543 68.6525L70.1407 67.8815L61.4883 70.2785L61.7019 71.0494ZM61.9095 71.0532C61.9382 70.9523 61.9637 70.851 61.9859 70.7493L61.2043 70.5786C61.1858 70.6636 61.1643 70.749 61.1399 70.8347L61.9095 71.0532ZM59.5576 74.0236C60.712 73.3804 61.5481 72.3245 61.9095 71.0534L61.1399 70.8346C60.8366 71.9016 60.1373 72.7849 59.1683 73.3248L59.5576 74.0236ZM57.1549 74.6516C57.9884 74.6516 58.8119 74.4392 59.5577 74.0236L59.1683 73.3248C58.5409 73.6744 57.8513 73.8516 57.1549 73.8516V74.6516ZM55.7943 74.4609C56.2427 74.5884 56.6999 74.6516 57.1549 74.6516V73.8516C56.7742 73.8516 56.3906 73.7987 56.0132 73.6914L55.7943 74.4609ZM55.7504 74.4477C55.7636 74.4518 55.7789 74.4565 55.7954 74.4612L56.0121 73.6911C56.0065 73.6895 55.9999 73.6875 55.9912 73.6848L55.7504 74.4477ZM45.4075 71.1701L55.75 74.4475L55.9916 73.6849L45.6492 70.4074L45.4075 71.1701ZM44.3966 69.2212C44.1375 70.0386 44.5903 70.911 45.4075 71.1701L45.6492 70.4074C45.253 70.2818 45.0337 69.859 45.1592 69.4629L44.3966 69.2212ZM46.3454 68.2103C45.5278 67.9513 44.6555 68.4039 44.3966 69.2212L45.1593 69.4629C45.2847 69.0667 45.7073 68.8473 46.1038 68.973L46.3454 68.2103ZM56.6699 71.4821L46.3455 68.2103L46.1038 68.9729L56.4283 72.2448L56.6699 71.4821ZM58.0464 71.3114C57.619 71.5496 57.1268 71.6083 56.6558 71.4779L56.4424 72.249C57.1159 72.4353 57.8245 72.3509 58.4358 72.0103L58.0464 71.3114ZM58.9231 70.2043C58.7882 70.6791 58.4776 71.0712 58.0464 71.3114L58.4358 72.0103C59.0524 71.6668 59.4996 71.102 59.6926 70.423L58.9231 70.2043ZM57.2869 67.6373C58.6151 68.1358 59.2054 69.2119 58.9231 70.2042L59.6926 70.423C60.121 68.917 59.1652 67.4878 57.568 66.8883L57.2869 67.6373ZM48.1404 64.5332L57.2989 67.6416L57.556 66.8841L48.3975 63.7756L48.1404 64.5332ZM47.3168 63.8762C47.5064 64.1845 47.7978 64.4169 48.1404 64.5332L48.3975 63.7756C48.2314 63.7193 48.0902 63.6066 47.9984 63.4572L47.3168 63.8762ZM42.0164 61.4166C45.7329 61.4166 47.2863 63.8281 47.3199 63.881L47.9953 63.4524C47.8985 63.2997 46.1328 60.6166 42.0164 60.6166V61.4166ZM36.8634 64.8479C37.3837 63.9953 38.1504 63.1304 39.0554 62.4818C39.9611 61.8327 40.9817 61.4166 42.0164 61.4166V60.6166C40.7673 60.6166 39.5868 61.1168 38.5894 61.8316C37.5911 62.547 36.7526 63.4935 36.1805 64.4312L36.8634 64.8479ZM36.922 73.921V64.6396H36.122V73.921H36.922ZM42.0819 75.3975C41.1456 74.8577 40.4178 74.4368 39.5975 74.1297C38.7695 73.8197 37.8623 73.6303 36.5549 73.5224L36.489 74.3197C37.7477 74.4236 38.5778 74.6022 39.317 74.8789C40.064 75.1586 40.7332 75.5433 41.6822 76.0906L42.0819 75.3975ZM42.0805 75.3968L42.0798 75.3964L41.6842 76.0917L41.6849 76.0921L42.0805 75.3968ZM48.7376 78.7972C45.2763 77.2398 43.4327 76.1765 42.0825 75.3979L41.6829 76.0909C43.0454 76.8766 44.9145 77.9542 48.4094 79.5268L48.7376 78.7972ZM54.1453 78.7007C51.8204 79.7692 49.5992 79.1317 48.7185 78.7892L48.4286 79.5348C49.3883 79.908 51.8635 80.6298 54.4794 79.4276L54.1453 78.7007ZM54.2079 78.6737C54.1876 78.6819 54.1668 78.6909 54.1456 78.7006L54.479 79.4278C54.4886 79.4234 54.4988 79.419 54.5096 79.4146L54.2079 78.6737ZM54.2338 78.6634L54.2108 78.6725L54.5068 79.4157L54.5298 79.4066L54.2338 78.6634ZM54.2768 78.6472C54.2628 78.6522 54.2482 78.6577 54.2364 78.6623L54.5272 79.4076C54.5355 79.4044 54.5415 79.4021 54.5447 79.401L54.2768 78.6472ZM43.2762 68.0795C43.2563 67.9815 43.2272 67.8847 43.1887 67.7908L42.4484 68.0942C42.4676 68.1409 42.4822 68.1893 42.4922 68.2388L43.2762 68.0795ZM43.3073 68.3839C43.3073 68.2807 43.2962 68.1779 43.2762 68.0795L42.4922 68.2388C42.5022 68.2878 42.5073 68.3372 42.5073 68.3839H43.3073ZM43.2762 68.6882C43.2962 68.5898 43.3073 68.487 43.3073 68.3839H42.5073C42.5073 68.4305 42.5022 68.4799 42.4922 68.5289L43.2762 68.6882ZM43.1878 68.9779C43.2271 68.8836 43.2564 68.786 43.2762 68.6882L42.4922 68.5289C42.4822 68.5786 42.4677 68.6262 42.4493 68.6702L43.1878 68.9779ZM43.0454 69.2453C43.1013 69.1613 43.1496 69.071 43.1887 68.9758L42.4484 68.6724C42.4299 68.7177 42.4067 68.7611 42.3797 68.8015L43.0454 69.2453ZM42.8525 69.4814C42.9238 69.4101 42.9898 69.3302 43.0472 69.2425L42.3779 68.8044C42.3523 68.8434 42.3215 68.881 42.2868 68.9158L42.8525 69.4814ZM42.6135 69.6762C42.7012 69.6188 42.7812 69.5527 42.8525 69.4814L42.2868 68.9157C42.2521 68.9505 42.2145 68.9812 42.1754 69.0068L42.6135 69.6762ZM42.3468 69.8177C42.4424 69.7786 42.5327 69.7301 42.6164 69.6743L42.1726 69.0087C42.1318 69.0359 42.0884 69.0591 42.0434 69.0775L42.3468 69.8177ZM42.0533 69.9064C42.159 69.8866 42.2585 69.8545 42.349 69.8168L42.0413 69.0784C41.9934 69.0983 41.9478 69.1123 41.9059 69.1201L42.0533 69.9064ZM41.7549 69.9363C41.8581 69.9363 41.9608 69.9253 42.0593 69.9053L41.9 69.1213C41.8509 69.1313 41.8016 69.1363 41.7549 69.1363V69.9363ZM41.4506 69.9053C41.549 69.9253 41.6518 69.9363 41.7549 69.9363V69.1363C41.7083 69.1363 41.6589 69.1313 41.6098 69.1213L41.4506 69.9053ZM41.1619 69.8177C41.2518 69.8546 41.3508 69.8866 41.4565 69.9064L41.6039 69.1201C41.5621 69.1123 41.5159 69.0982 41.4652 69.0775L41.1619 69.8177ZM40.893 69.674C40.9771 69.7302 41.0669 69.7782 41.1597 69.8168L41.4674 69.0784C41.4219 69.0594 41.378 69.0359 41.3377 69.0089L40.893 69.674ZM40.6573 69.4814C40.7286 69.5527 40.8086 69.6188 40.8963 69.6762L41.3344 69.0068C41.2953 68.9812 41.2577 68.9505 41.223 68.9157L40.6573 69.4814ZM40.4626 69.2425C40.52 69.3302 40.5861 69.4101 40.6573 69.4814L41.223 68.9158C41.1883 68.881 41.1576 68.8434 41.132 68.8044L40.4626 69.2425ZM40.3212 68.9758C40.3588 69.0676 40.4061 69.1602 40.4673 69.2495L41.1273 68.7973C41.1032 68.7622 41.0814 68.7211 41.0614 68.6724L40.3212 68.9758ZM40.2324 68.6823C40.2522 68.7879 40.2844 68.8875 40.322 68.9779L41.0605 68.6702C41.0406 68.6224 41.0266 68.5767 41.0187 68.5349L40.2324 68.6823ZM40.2025 68.3839C40.2025 68.487 40.2136 68.5898 40.2336 68.6882L41.0176 68.5289C41.0076 68.4799 41.0025 68.4305 41.0025 68.3839H40.2025ZM40.2336 68.0795C40.2136 68.1779 40.2025 68.2807 40.2025 68.3839H41.0025C41.0025 68.3372 41.0076 68.2878 41.0176 68.2388L40.2336 68.0795ZM40.3212 67.7908C40.2843 67.8808 40.2523 67.9797 40.2324 68.0854L41.0187 68.2329C41.0266 68.1911 41.0406 68.1448 41.0614 68.0942L40.3212 67.7908ZM40.4673 67.5182C40.4062 67.6073 40.3592 67.6994 40.322 67.7886L41.0605 68.0963C41.0809 68.0473 41.1031 68.0057 41.1273 67.9704L40.4673 67.5182ZM40.6573 67.2863C40.5861 67.3576 40.52 67.4375 40.4626 67.5252L41.132 67.9633C41.1576 67.9243 41.1883 67.8867 41.223 67.852L40.6573 67.2863ZM40.8963 67.0916C40.8086 67.1489 40.7286 67.215 40.6573 67.2863L41.223 67.852C41.2578 67.8172 41.2953 67.7865 41.3344 67.7609L40.8963 67.0916ZM41.1597 66.951C41.0669 66.9896 40.9773 67.0375 40.8935 67.0934L41.3372 67.759C41.3779 67.732 41.4219 67.7084 41.4674 67.6894L41.1597 66.951ZM41.4565 66.8614C41.3508 66.8812 41.2518 66.9132 41.1619 66.9501L41.4652 67.6903C41.5159 67.6696 41.5621 67.6555 41.6039 67.6477L41.4565 66.8614ZM42.0587 66.8624C41.858 66.822 41.6508 66.8219 41.4506 66.8625L41.6098 67.6465C41.7046 67.6273 41.8039 67.6272 41.9006 67.6466L42.0587 66.8624ZM42.349 66.951C42.2585 66.9133 42.159 66.8812 42.0533 66.8614L41.9059 67.6477C41.9478 67.6555 41.9934 67.6695 42.0413 67.6894L42.349 66.951ZM42.6164 67.0934C42.5324 67.0374 42.4421 66.9891 42.3468 66.9501L42.0434 67.6903C42.0888 67.7089 42.1321 67.7321 42.1726 67.759L42.6164 67.0934ZM42.8525 67.2863C42.7812 67.215 42.7012 67.1489 42.6135 67.0915L42.1754 67.7609C42.2145 67.7865 42.2521 67.8172 42.2868 67.852L42.8525 67.2863ZM43.0472 67.5252C42.9898 67.4375 42.9238 67.3576 42.8525 67.2863L42.2868 67.852C42.3215 67.8867 42.3523 67.9243 42.3779 67.9634L43.0472 67.5252ZM43.1878 67.7886C43.1491 67.6959 43.1012 67.6062 43.0454 67.5224L42.3797 67.9662C42.4068 68.0068 42.4304 68.0508 42.4493 68.0963L43.1878 67.7886Z" fill="#FFFAF9" mask="url(#path-2-inside-1)"></path> </svg> 