<?xml version="1.0" encoding="UTF-8"?> <svg xmlns="http://www.w3.org/2000/svg" width="107" height="107" viewBox="0 0 107 107" fill="none"> <circle cx="53.5" cy="53.5" r="53.5" fill="#FFFAF9"></circle> <mask id="path-2-inside-1" fill="white"> <path d="M76.7177 44.5281H71.9959L73.4186 28.1937C73.4212 28.1641 73.4217 28.135 73.4218 28.1058C73.4218 28.1033 73.4221 28.101 73.4221 28.0985C73.4221 28.0981 73.4221 28.0978 73.4221 28.0973C73.4221 27.6527 73.1539 27.2609 72.7597 27.0905C72.7563 27.0891 72.7531 27.0873 72.7497 27.0858C72.7253 27.0756 72.6999 27.0668 72.6744 27.0583C72.6649 27.0552 72.6558 27.0514 72.6463 27.0485C72.6255 27.0422 72.6041 27.0372 72.5829 27.0321C72.5679 27.0286 72.5536 27.0243 72.5385 27.0214C72.5199 27.0177 72.5006 27.0154 72.4815 27.0126C72.4637 27.01 72.4461 27.0069 72.4281 27.0053C72.425 27.005 72.4222 27.0044 72.4191 27.0041C72.3998 27.0023 72.3807 27.0026 72.3616 27.0019C72.3487 27.0015 72.3361 27 72.3232 27H72.3094C72.3082 27 72.3071 27 72.306 27H49.8395C49.233 27 48.7409 27.4922 48.7409 28.0986C48.7409 28.7036 49.233 29.1973 49.8395 29.1973H71.1257L68.9392 54.3011C68.9389 54.303 68.9389 54.3049 68.9386 54.3068L68.387 60.641H30.2117L30.8502 54.0495H38.1189C38.7258 54.0495 39.2176 53.5576 39.2176 52.9508C39.2176 52.3441 38.7258 51.8522 38.1189 51.8522H31.0632L32.4114 37.9369H43.9801C44.587 37.9369 45.0787 37.445 45.0787 36.8382C45.0787 36.2315 44.587 35.7396 43.9801 35.7396H32.6244L33.2584 29.1973H45.4449C46.0499 29.1973 46.5436 28.7036 46.5436 28.0986C46.5436 27.4922 46.0499 27 45.4449 27H32.2613C32.2607 27 32.2603 27.0001 32.2597 27.0001C31.7436 27 31.296 27.3633 31.1877 27.8669C31.187 27.8706 31.1857 27.8741 31.1849 27.8777C31.1794 27.9051 31.1757 27.9331 31.172 27.9612C31.171 27.9702 31.1691 27.9787 31.1682 27.9876C31.1681 27.9894 31.1676 27.991 31.1675 27.9927L30.4169 35.7396H17.0986C16.4917 35.7396 16 36.2315 16 36.8382C16 37.445 16.4917 37.9369 17.0986 37.9369H30.2039L28.8557 51.8522H24.9359C24.329 51.8522 23.8372 52.3441 23.8372 52.9508C23.8372 53.5576 24.329 54.0495 24.9359 54.0495H28.6428L27.9086 61.6258C27.9085 61.627 27.9085 61.6282 27.9083 61.6292L26.7732 73.3449C26.7731 73.3462 26.7729 73.3477 26.7728 73.3489L26.7724 73.3531C26.7709 73.3683 26.771 73.3833 26.7702 73.3985C26.7691 73.4187 26.7671 73.4385 26.7671 73.459C26.7671 73.4599 26.7672 73.4608 26.7672 73.4618C26.7672 73.4901 26.7693 73.5179 26.7713 73.5457C26.7722 73.5547 26.7719 73.5638 26.7729 73.5725C26.7759 73.601 26.7807 73.6289 26.7858 73.6568C26.7873 73.665 26.788 73.6733 26.7896 73.6814C26.7939 73.7025 26.7999 73.7228 26.8055 73.7435C26.8093 73.758 26.8123 73.7728 26.8167 73.787C26.8181 73.791 26.8198 73.7948 26.821 73.7989C26.8742 73.9623 26.9644 74.1091 27.0822 74.2289C27.0844 74.2311 27.0861 74.2336 27.0883 74.2357C27.1 74.2474 27.1128 74.2579 27.1251 74.2691C27.2008 74.3385 27.2864 74.3974 27.38 74.4435C27.3995 74.4532 27.4186 74.4633 27.4386 74.4717C27.4446 74.4743 27.451 74.4761 27.4572 74.4784C27.4847 74.4894 27.5124 74.4999 27.541 74.5089C27.5436 74.5096 27.5461 74.51 27.5487 74.5109C27.5812 74.5206 27.6141 74.5291 27.6476 74.536C27.652 74.5369 27.6565 74.5371 27.6608 74.538C27.6927 74.544 27.7248 74.5492 27.7575 74.5524C27.7582 74.5524 27.7588 74.5525 27.7595 74.5527C27.7956 74.5562 27.8313 74.5579 27.8667 74.5579C27.8672 74.5579 27.8678 74.5578 27.8684 74.5578H32.7592C33.2993 78.6525 36.8098 81.8239 41.0498 81.8239C45.2895 81.8239 48.8 78.6525 49.3401 74.5578H66.9621C67.5024 78.6525 71.0127 81.8239 75.2526 81.8239C79.4923 81.8239 83.0031 78.6525 83.5433 74.5578H88.4353C88.4361 74.5578 88.437 74.5579 88.4377 74.5579C88.4743 74.5579 88.5103 74.5558 88.5461 74.5522C88.5525 74.5517 88.5587 74.5503 88.5651 74.5496C88.5937 74.5462 88.6221 74.5423 88.6499 74.5367C88.662 74.5344 88.6735 74.5311 88.6854 74.5284C88.7069 74.5234 88.7286 74.5181 88.7497 74.5118C88.7641 74.5076 88.778 74.5026 88.792 74.4977C88.8101 74.4916 88.8281 74.4851 88.8458 74.478C88.861 74.472 88.8755 74.4654 88.8903 74.4588C88.9064 74.4513 88.9226 74.4437 88.9382 74.4356C88.9532 74.428 88.9675 74.4201 88.9819 74.4119C88.997 74.4031 89.0119 74.394 89.0267 74.3847C89.0405 74.3759 89.0542 74.3669 89.0674 74.3576C89.0824 74.3472 89.0966 74.3362 89.1111 74.325C89.1231 74.3155 89.1352 74.3061 89.147 74.2962C89.1621 74.2834 89.1763 74.2701 89.1906 74.2565C89.2006 74.247 89.211 74.2376 89.2207 74.2276C89.2359 74.2121 89.2504 74.1957 89.2649 74.1791C89.2727 74.1702 89.2807 74.1616 89.2882 74.1525C89.3043 74.1326 89.3189 74.112 89.3336 74.0914C89.3386 74.0842 89.3441 74.0775 89.349 74.0702C89.3668 74.0433 89.3837 74.0158 89.3992 73.9874C89.4004 73.9856 89.4016 73.984 89.4023 73.9821C89.4188 73.9516 89.4341 73.9204 89.4477 73.8882C89.4515 73.879 89.4544 73.8695 89.4581 73.8602C89.467 73.8375 89.4758 73.8148 89.4833 73.7912C89.4881 73.776 89.4917 73.7603 89.4959 73.745C89.5007 73.7266 89.5059 73.7085 89.51 73.6899C89.5136 73.6733 89.516 73.6563 89.5187 73.6395C89.5212 73.6247 89.5245 73.6102 89.5264 73.5951C89.5729 73.2219 90.4333 66.3196 90.8175 61.8565C90.8179 61.8523 90.8181 61.8479 90.8185 61.8436C90.9291 60.5571 91 59.4737 91 58.8104C91 50.9352 84.593 44.5281 76.7177 44.5281ZM71.8045 46.7257H76.2991L75.725 53.3169H71.2304L71.8045 46.7257ZM41.0501 79.6265C37.6492 79.6265 34.8824 76.8597 34.8824 73.4589C34.8824 70.0581 37.6493 67.2913 41.0501 67.2913C44.4509 67.2913 47.2177 70.0581 47.2177 73.4589C47.2177 76.8597 44.4509 79.6265 41.0501 79.6265ZM75.2526 79.6265C71.8518 79.6265 69.0851 76.8597 69.0851 73.4589C69.0851 70.0581 71.8519 67.2913 75.2526 67.2913C78.6535 67.2913 81.4203 70.0581 81.4203 73.4589C81.4203 76.8597 78.6535 79.6265 75.2526 79.6265ZM87.4646 72.3598H83.5436C83.0037 68.2648 79.493 65.0933 75.2529 65.0933C71.013 65.0933 67.5024 68.265 66.9624 72.3598H49.3406C48.8006 68.2648 45.2901 65.0933 41.0501 65.0933C36.8101 65.0933 33.2993 68.265 32.7593 72.3598H29.0761L29.9988 62.8377H69.3938V62.8383C69.3944 62.8383 69.3948 62.8383 69.3954 62.8383C69.4321 62.8383 69.4686 62.8362 69.5047 62.8326C69.5114 62.832 69.518 62.8305 69.5247 62.8296C69.5534 62.8263 69.582 62.8222 69.6101 62.8166C69.6223 62.8141 69.6341 62.8107 69.6462 62.8078C69.6681 62.8025 69.6901 62.7974 69.7115 62.791C69.7261 62.7866 69.7401 62.7813 69.7543 62.7763C69.7727 62.7699 69.7912 62.7636 69.8091 62.7562C69.8244 62.7499 69.8392 62.7429 69.8542 62.7359C69.8704 62.7284 69.8867 62.7209 69.9024 62.7127C69.9173 62.7048 69.932 62.6963 69.9467 62.6878C69.9618 62.679 69.9768 62.6701 69.9914 62.6607C70.0056 62.6515 70.0191 62.6418 70.0327 62.6322C70.0472 62.6219 70.0613 62.6114 70.0754 62.6004C70.088 62.5903 70.1004 62.5799 70.1127 62.5692C70.1266 62.5572 70.1403 62.5449 70.1534 62.5321C70.1646 62.5214 70.1757 62.5104 70.1865 62.4992C70.1997 62.4854 70.2125 62.4712 70.2251 62.4567C70.2349 62.4453 70.2446 62.4338 70.2539 62.4221C70.2661 62.4067 70.2777 62.3909 70.2891 62.3749C70.2977 62.3629 70.3061 62.3509 70.3143 62.3386C70.325 62.3221 70.3352 62.3051 70.345 62.2878C70.3525 62.2749 70.3601 62.262 70.3669 62.2488C70.3761 62.2315 70.384 62.214 70.3924 62.1962C70.3988 62.182 70.4054 62.1681 70.4113 62.1535C70.4184 62.1362 70.4244 62.1184 70.4307 62.1007C70.4362 62.085 70.4419 62.0694 70.4467 62.0533C70.4515 62.0363 70.4555 62.0188 70.4599 62.0016C70.4641 61.9841 70.4688 61.9668 70.4722 61.9491C70.4756 61.9318 70.4776 61.9142 70.4802 61.8967C70.4829 61.8785 70.486 61.8606 70.4877 61.8422C70.488 61.8395 70.4886 61.837 70.4887 61.8344L71.0394 55.5136H76.7174C80.0835 55.5136 81.6017 57.2576 83.2088 59.1042C84.5349 60.6278 86.0154 62.3278 88.532 62.7425C88.2124 66.1219 87.6957 70.4602 87.4646 72.3598ZM88.7198 60.5408C87.0872 60.208 86.0828 59.0603 84.8659 57.6622C83.3441 55.9139 81.4862 53.7804 77.9248 53.3828L78.4931 46.8572C84.3179 47.7187 88.8027 52.7501 88.8027 58.8107C88.8027 59.2224 88.772 59.8207 88.7198 60.5408Z"></path> </mask> <path d="M76.7177 44.5281H71.9959L73.4186 28.1937C73.4212 28.1641 73.4217 28.135 73.4218 28.1058C73.4218 28.1033 73.4221 28.101 73.4221 28.0985C73.4221 28.0981 73.4221 28.0978 73.4221 28.0973C73.4221 27.6527 73.1539 27.2609 72.7597 27.0905C72.7563 27.0891 72.7531 27.0873 72.7497 27.0858C72.7253 27.0756 72.6999 27.0668 72.6744 27.0583C72.6649 27.0552 72.6558 27.0514 72.6463 27.0485C72.6255 27.0422 72.6041 27.0372 72.5829 27.0321C72.5679 27.0286 72.5536 27.0243 72.5385 27.0214C72.5199 27.0177 72.5006 27.0154 72.4815 27.0126C72.4637 27.01 72.4461 27.0069 72.4281 27.0053C72.425 27.005 72.4222 27.0044 72.4191 27.0041C72.3998 27.0023 72.3807 27.0026 72.3616 27.0019C72.3487 27.0015 72.3361 27 72.3232 27H72.3094C72.3082 27 72.3071 27 72.306 27H49.8395C49.233 27 48.7409 27.4922 48.7409 28.0986C48.7409 28.7036 49.233 29.1973 49.8395 29.1973H71.1257L68.9392 54.3011C68.9389 54.303 68.9389 54.3049 68.9386 54.3068L68.387 60.641H30.2117L30.8502 54.0495H38.1189C38.7258 54.0495 39.2176 53.5576 39.2176 52.9508C39.2176 52.3441 38.7258 51.8522 38.1189 51.8522H31.0632L32.4114 37.9369H43.9801C44.587 37.9369 45.0787 37.445 45.0787 36.8382C45.0787 36.2315 44.587 35.7396 43.9801 35.7396H32.6244L33.2584 29.1973H45.4449C46.0499 29.1973 46.5436 28.7036 46.5436 28.0986C46.5436 27.4922 46.0499 27 45.4449 27H32.2613C32.2607 27 32.2603 27.0001 32.2597 27.0001C31.7436 27 31.296 27.3633 31.1877 27.8669C31.187 27.8706 31.1857 27.8741 31.1849 27.8777C31.1794 27.9051 31.1757 27.9331 31.172 27.9612C31.171 27.9702 31.1691 27.9787 31.1682 27.9876C31.1681 27.9894 31.1676 27.991 31.1675 27.9927L30.4169 35.7396H17.0986C16.4917 35.7396 16 36.2315 16 36.8382C16 37.445 16.4917 37.9369 17.0986 37.9369H30.2039L28.8557 51.8522H24.9359C24.329 51.8522 23.8372 52.3441 23.8372 52.9508C23.8372 53.5576 24.329 54.0495 24.9359 54.0495H28.6428L27.9086 61.6258C27.9085 61.627 27.9085 61.6282 27.9083 61.6292L26.7732 73.3449C26.7731 73.3462 26.7729 73.3477 26.7728 73.3489L26.7724 73.3531C26.7709 73.3683 26.771 73.3833 26.7702 73.3985C26.7691 73.4187 26.7671 73.4385 26.7671 73.459C26.7671 73.4599 26.7672 73.4608 26.7672 73.4618C26.7672 73.4901 26.7693 73.5179 26.7713 73.5457C26.7722 73.5547 26.7719 73.5638 26.7729 73.5725C26.7759 73.601 26.7807 73.6289 26.7858 73.6568C26.7873 73.665 26.788 73.6733 26.7896 73.6814C26.7939 73.7025 26.7999 73.7228 26.8055 73.7435C26.8093 73.758 26.8123 73.7728 26.8167 73.787C26.8181 73.791 26.8198 73.7948 26.821 73.7989C26.8742 73.9623 26.9644 74.1091 27.0822 74.2289C27.0844 74.2311 27.0861 74.2336 27.0883 74.2357C27.1 74.2474 27.1128 74.2579 27.1251 74.2691C27.2008 74.3385 27.2864 74.3974 27.38 74.4435C27.3995 74.4532 27.4186 74.4633 27.4386 74.4717C27.4446 74.4743 27.451 74.4761 27.4572 74.4784C27.4847 74.4894 27.5124 74.4999 27.541 74.5089C27.5436 74.5096 27.5461 74.51 27.5487 74.5109C27.5812 74.5206 27.6141 74.5291 27.6476 74.536C27.652 74.5369 27.6565 74.5371 27.6608 74.538C27.6927 74.544 27.7248 74.5492 27.7575 74.5524C27.7582 74.5524 27.7588 74.5525 27.7595 74.5527C27.7956 74.5562 27.8313 74.5579 27.8667 74.5579C27.8672 74.5579 27.8678 74.5578 27.8684 74.5578H32.7592C33.2993 78.6525 36.8098 81.8239 41.0498 81.8239C45.2895 81.8239 48.8 78.6525 49.3401 74.5578H66.9621C67.5024 78.6525 71.0127 81.8239 75.2526 81.8239C79.4923 81.8239 83.0031 78.6525 83.5433 74.5578H88.4353C88.4361 74.5578 88.437 74.5579 88.4377 74.5579C88.4743 74.5579 88.5103 74.5558 88.5461 74.5522C88.5525 74.5517 88.5587 74.5503 88.5651 74.5496C88.5937 74.5462 88.6221 74.5423 88.6499 74.5367C88.662 74.5344 88.6735 74.5311 88.6854 74.5284C88.7069 74.5234 88.7286 74.5181 88.7497 74.5118C88.7641 74.5076 88.778 74.5026 88.792 74.4977C88.8101 74.4916 88.8281 74.4851 88.8458 74.478C88.861 74.472 88.8755 74.4654 88.8903 74.4588C88.9064 74.4513 88.9226 74.4437 88.9382 74.4356C88.9532 74.428 88.9675 74.4201 88.9819 74.4119C88.997 74.4031 89.0119 74.394 89.0267 74.3847C89.0405 74.3759 89.0542 74.3669 89.0674 74.3576C89.0824 74.3472 89.0966 74.3362 89.1111 74.325C89.1231 74.3155 89.1352 74.3061 89.147 74.2962C89.1621 74.2834 89.1763 74.2701 89.1906 74.2565C89.2006 74.247 89.211 74.2376 89.2207 74.2276C89.2359 74.2121 89.2504 74.1957 89.2649 74.1791C89.2727 74.1702 89.2807 74.1616 89.2882 74.1525C89.3043 74.1326 89.3189 74.112 89.3336 74.0914C89.3386 74.0842 89.3441 74.0775 89.349 74.0702C89.3668 74.0433 89.3837 74.0158 89.3992 73.9874C89.4004 73.9856 89.4016 73.984 89.4023 73.9821C89.4188 73.9516 89.4341 73.9204 89.4477 73.8882C89.4515 73.879 89.4544 73.8695 89.4581 73.8602C89.467 73.8375 89.4758 73.8148 89.4833 73.7912C89.4881 73.776 89.4917 73.7603 89.4959 73.745C89.5007 73.7266 89.5059 73.7085 89.51 73.6899C89.5136 73.6733 89.516 73.6563 89.5187 73.6395C89.5212 73.6247 89.5245 73.6102 89.5264 73.5951C89.5729 73.2219 90.4333 66.3196 90.8175 61.8565C90.8179 61.8523 90.8181 61.8479 90.8185 61.8436C90.9291 60.5571 91 59.4737 91 58.8104C91 50.9352 84.593 44.5281 76.7177 44.5281ZM71.8045 46.7257H76.2991L75.725 53.3169H71.2304L71.8045 46.7257ZM41.0501 79.6265C37.6492 79.6265 34.8824 76.8597 34.8824 73.4589C34.8824 70.0581 37.6493 67.2913 41.0501 67.2913C44.4509 67.2913 47.2177 70.0581 47.2177 73.4589C47.2177 76.8597 44.4509 79.6265 41.0501 79.6265ZM75.2526 79.6265C71.8518 79.6265 69.0851 76.8597 69.0851 73.4589C69.0851 70.0581 71.8519 67.2913 75.2526 67.2913C78.6535 67.2913 81.4203 70.0581 81.4203 73.4589C81.4203 76.8597 78.6535 79.6265 75.2526 79.6265ZM87.4646 72.3598H83.5436C83.0037 68.2648 79.493 65.0933 75.2529 65.0933C71.013 65.0933 67.5024 68.265 66.9624 72.3598H49.3406C48.8006 68.2648 45.2901 65.0933 41.0501 65.0933C36.8101 65.0933 33.2993 68.265 32.7593 72.3598H29.0761L29.9988 62.8377H69.3938V62.8383C69.3944 62.8383 69.3948 62.8383 69.3954 62.8383C69.4321 62.8383 69.4686 62.8362 69.5047 62.8326C69.5114 62.832 69.518 62.8305 69.5247 62.8296C69.5534 62.8263 69.582 62.8222 69.6101 62.8166C69.6223 62.8141 69.6341 62.8107 69.6462 62.8078C69.6681 62.8025 69.6901 62.7974 69.7115 62.791C69.7261 62.7866 69.7401 62.7813 69.7543 62.7763C69.7727 62.7699 69.7912 62.7636 69.8091 62.7562C69.8244 62.7499 69.8392 62.7429 69.8542 62.7359C69.8704 62.7284 69.8867 62.7209 69.9024 62.7127C69.9173 62.7048 69.932 62.6963 69.9467 62.6878C69.9618 62.679 69.9768 62.6701 69.9914 62.6607C70.0056 62.6515 70.0191 62.6418 70.0327 62.6322C70.0472 62.6219 70.0613 62.6114 70.0754 62.6004C70.088 62.5903 70.1004 62.5799 70.1127 62.5692C70.1266 62.5572 70.1403 62.5449 70.1534 62.5321C70.1646 62.5214 70.1757 62.5104 70.1865 62.4992C70.1997 62.4854 70.2125 62.4712 70.2251 62.4567C70.2349 62.4453 70.2446 62.4338 70.2539 62.4221C70.2661 62.4067 70.2777 62.3909 70.2891 62.3749C70.2977 62.3629 70.3061 62.3509 70.3143 62.3386C70.325 62.3221 70.3352 62.3051 70.345 62.2878C70.3525 62.2749 70.3601 62.262 70.3669 62.2488C70.3761 62.2315 70.384 62.214 70.3924 62.1962C70.3988 62.182 70.4054 62.1681 70.4113 62.1535C70.4184 62.1362 70.4244 62.1184 70.4307 62.1007C70.4362 62.085 70.4419 62.0694 70.4467 62.0533C70.4515 62.0363 70.4555 62.0188 70.4599 62.0016C70.4641 61.9841 70.4688 61.9668 70.4722 61.9491C70.4756 61.9318 70.4776 61.9142 70.4802 61.8967C70.4829 61.8785 70.486 61.8606 70.4877 61.8422C70.488 61.8395 70.4886 61.837 70.4887 61.8344L71.0394 55.5136H76.7174C80.0835 55.5136 81.6017 57.2576 83.2088 59.1042C84.5349 60.6278 86.0154 62.3278 88.532 62.7425C88.2124 66.1219 87.6957 70.4602 87.4646 72.3598ZM88.7198 60.5408C87.0872 60.208 86.0828 59.0603 84.8659 57.6622C83.3441 55.9139 81.4862 53.7804 77.9248 53.3828L78.4931 46.8572C84.3179 47.7187 88.8027 52.7501 88.8027 58.8107C88.8027 59.2224 88.772 59.8207 88.7198 60.5408Z" fill="black" stroke="#FFFAF9" stroke-width="0.6" mask="url(#path-2-inside-1)"></path> <path d="M37.1717 73.4587C37.1717 71.3202 38.9118 69.5804 41.0501 69.5804C43.1884 69.5804 44.9284 71.3204 44.9284 73.4587C44.9284 75.5971 43.1884 77.337 41.0501 77.337C38.9118 77.337 37.1717 75.5971 37.1717 73.4587ZM39.069 73.4587C39.069 74.5513 39.9575 75.4398 41.0501 75.4398C42.1425 75.4398 43.0311 74.5513 43.0311 73.4587C43.0311 72.3661 42.1426 71.4776 41.0501 71.4776C39.9575 71.4776 39.069 72.3661 39.069 73.4587Z" fill="black" stroke="#FFFAF9" stroke-width="0.3"></path> <path d="M71.3742 73.4587C71.3742 71.3202 73.1143 69.5804 75.2526 69.5804C77.3909 69.5804 79.1309 71.3204 79.1309 73.4587C79.1309 75.5971 77.3909 77.337 75.2526 77.337C73.1143 77.337 71.3742 75.5971 71.3742 73.4587ZM73.2715 73.4587C73.2715 74.5513 74.16 75.4398 75.2526 75.4398C76.3451 75.4398 77.2336 74.5513 77.2336 73.4587C77.2336 72.3661 76.3451 71.4776 75.2526 71.4776C74.16 71.4776 73.2715 72.3661 73.2715 73.4587Z" fill="black" stroke="#FFFAF9" stroke-width="0.3"></path> <path d="M21.0294 44.6784H26.4004C26.9245 44.6784 27.3491 45.1031 27.3491 45.627C27.3491 46.1509 26.9245 46.5757 26.4004 46.5757H21.0294C20.5054 46.5757 20.0808 46.1509 20.0808 45.627C20.0808 45.1031 20.5054 44.6784 21.0294 44.6784Z" fill="black" stroke="#FFFAF9" stroke-width="0.3"></path> </svg> 