<?xml version="1.0" encoding="UTF-8"?> <svg xmlns="http://www.w3.org/2000/svg" width="107" height="107" viewBox="0 0 107 107" fill="none"> <circle cx="53.5" cy="53.5" r="53.5" fill="#FFFAF9"></circle> <mask id="path-2-inside-1" fill="white"> <path fill-rule="evenodd" clip-rule="evenodd" d="M80.4025 78.2511L72.0365 58.0542C71.8234 57.5398 71.2336 57.2953 70.7191 57.5085C70.2045 57.7217 69.9601 58.3116 70.1733 58.826L77.7363 77.0845L70.8378 75.0856C70.385 74.9543 69.9013 75.1546 69.674 75.5678L66.2093 81.8591L58.0943 62.2675C67.4605 60.4613 74.5574 52.2035 74.5574 42.318C74.5575 31.1147 65.443 22 54.2396 22C43.0363 22 33.9216 31.1147 33.9216 42.318C33.9216 46.8559 35.4172 51.0507 37.9411 54.4364L28.0768 78.2511C27.9285 78.6093 27.9985 79.0207 28.2571 79.3095C28.5155 79.5983 28.9168 79.7134 29.2891 79.6056L37.4278 77.2472L41.5151 84.6698C41.6931 84.9929 42.0323 85.1917 42.3982 85.1917C42.4167 85.1917 42.4354 85.1912 42.4541 85.1902C42.8412 85.1687 43.1816 84.9274 43.33 84.5692L51.1464 65.6987C51.3595 65.1841 51.1152 64.5943 50.6007 64.3812C50.0862 64.1681 49.4963 64.4124 49.2832 64.9269L42.2696 81.8591L38.8052 75.5678C38.5777 75.1546 38.0939 74.9543 37.6413 75.0856L30.7429 77.0845L39.4011 56.1816C43.1117 60.1506 48.3905 62.6359 54.2396 62.6359C54.8434 62.6359 55.4407 62.6078 56.0312 62.556L65.1493 84.5692C65.2976 84.9274 65.6382 85.1687 66.0251 85.1901C66.044 85.1912 66.0625 85.1917 66.0812 85.1917C66.447 85.1917 66.7863 84.9929 66.9641 84.6698L71.0516 77.2472L79.1903 79.6056C79.5628 79.7135 79.9637 79.5983 80.2223 79.3095C80.4808 79.0207 80.5508 78.6093 80.4025 78.2511ZM35.9383 42.318C35.9383 32.2267 44.1483 24.0168 54.2396 24.0168C64.3309 24.0168 72.5407 32.2267 72.5407 42.318C72.5407 52.4093 64.3309 60.6191 54.2396 60.6191C44.1483 60.6191 35.9383 52.4093 35.9383 42.318ZM65.8909 38.5322C65.7749 38.1748 65.4694 37.9116 65.0987 37.8493L58.3134 36.7107L55.1338 30.6095C54.9601 30.2761 54.6155 30.0671 54.2396 30.0671C53.8638 30.0671 53.519 30.2761 53.3453 30.6095L50.1656 36.7107L43.3804 37.8493C43.0097 37.9115 42.7044 38.1747 42.5882 38.5322C42.4721 38.8897 42.5643 39.282 42.8277 39.5503L47.6477 44.4597L46.634 51.2648C46.5786 51.6366 46.7345 52.0082 47.0387 52.2292C47.3425 52.45 47.7444 52.4835 48.0808 52.3161L54.2396 49.249L60.3982 52.3161C60.5406 52.3869 60.6944 52.4219 60.8477 52.4219C61.057 52.4219 61.265 52.3568 61.4405 52.2294C61.7446 52.0083 61.9006 51.6367 61.8452 51.2649L60.8315 44.4599L65.6516 39.5503C65.9148 39.282 66.0071 38.8897 65.8909 38.5322ZM59.0405 43.4052C58.8189 43.631 58.7161 43.9475 58.7627 44.2602L59.5654 49.6482L54.6892 47.2199C54.5475 47.1494 54.3936 47.1141 54.2396 47.1141C54.0856 47.1141 53.9315 47.1493 53.7901 47.2199L48.9138 49.6482L49.7165 44.2602C49.7632 43.9475 49.6603 43.6308 49.4387 43.4052L45.6224 39.518L50.9946 38.6164C51.3065 38.5641 51.5758 38.3685 51.722 38.088L54.2396 33.2573L56.7571 38.0881C56.9034 38.3686 57.1726 38.5642 57.4845 38.6165L62.8569 39.5181L59.0405 43.4052ZM68.3826 44.2024C68.4556 43.6502 68.9625 43.2614 69.5146 43.3352C70.0667 43.4083 70.455 43.9152 70.3819 44.4671C69.3142 52.5256 62.3745 58.6024 54.2395 58.6024C45.2602 58.6024 37.955 51.2975 37.955 42.3181C37.955 33.3387 45.2602 26.0336 54.2395 26.0336C62.3745 26.0336 69.3142 32.1105 70.3817 40.1689C70.455 40.7209 70.0666 41.2278 69.5146 41.301C68.9634 41.375 68.4556 40.9859 68.3826 40.4338C67.4472 33.374 61.3671 28.0503 54.2395 28.0503C46.3722 28.0503 39.9717 34.4507 39.9717 42.3181C39.9717 50.1854 46.3722 56.5858 54.2395 56.5858C61.367 56.5858 67.4472 51.262 68.3826 44.2024Z"></path> </mask> <path fill-rule="evenodd" clip-rule="evenodd" d="M80.4025 78.2511L72.0365 58.0542C71.8234 57.5398 71.2336 57.2953 70.7191 57.5085C70.2045 57.7217 69.9601 58.3116 70.1733 58.826L77.7363 77.0845L70.8378 75.0856C70.385 74.9543 69.9013 75.1546 69.674 75.5678L66.2093 81.8591L58.0943 62.2675C67.4605 60.4613 74.5574 52.2035 74.5574 42.318C74.5575 31.1147 65.443 22 54.2396 22C43.0363 22 33.9216 31.1147 33.9216 42.318C33.9216 46.8559 35.4172 51.0507 37.9411 54.4364L28.0768 78.2511C27.9285 78.6093 27.9985 79.0207 28.2571 79.3095C28.5155 79.5983 28.9168 79.7134 29.2891 79.6056L37.4278 77.2472L41.5151 84.6698C41.6931 84.9929 42.0323 85.1917 42.3982 85.1917C42.4167 85.1917 42.4354 85.1912 42.4541 85.1902C42.8412 85.1687 43.1816 84.9274 43.33 84.5692L51.1464 65.6987C51.3595 65.1841 51.1152 64.5943 50.6007 64.3812C50.0862 64.1681 49.4963 64.4124 49.2832 64.9269L42.2696 81.8591L38.8052 75.5678C38.5777 75.1546 38.0939 74.9543 37.6413 75.0856L30.7429 77.0845L39.4011 56.1816C43.1117 60.1506 48.3905 62.6359 54.2396 62.6359C54.8434 62.6359 55.4407 62.6078 56.0312 62.556L65.1493 84.5692C65.2976 84.9274 65.6382 85.1687 66.0251 85.1901C66.044 85.1912 66.0625 85.1917 66.0812 85.1917C66.447 85.1917 66.7863 84.9929 66.9641 84.6698L71.0516 77.2472L79.1903 79.6056C79.5628 79.7135 79.9637 79.5983 80.2223 79.3095C80.4808 79.0207 80.5508 78.6093 80.4025 78.2511ZM35.9383 42.318C35.9383 32.2267 44.1483 24.0168 54.2396 24.0168C64.3309 24.0168 72.5407 32.2267 72.5407 42.318C72.5407 52.4093 64.3309 60.6191 54.2396 60.6191C44.1483 60.6191 35.9383 52.4093 35.9383 42.318ZM65.8909 38.5322C65.7749 38.1748 65.4694 37.9116 65.0987 37.8493L58.3134 36.7107L55.1338 30.6095C54.9601 30.2761 54.6155 30.0671 54.2396 30.0671C53.8638 30.0671 53.519 30.2761 53.3453 30.6095L50.1656 36.7107L43.3804 37.8493C43.0097 37.9115 42.7044 38.1747 42.5882 38.5322C42.4721 38.8897 42.5643 39.282 42.8277 39.5503L47.6477 44.4597L46.634 51.2648C46.5786 51.6366 46.7345 52.0082 47.0387 52.2292C47.3425 52.45 47.7444 52.4835 48.0808 52.3161L54.2396 49.249L60.3982 52.3161C60.5406 52.3869 60.6944 52.4219 60.8477 52.4219C61.057 52.4219 61.265 52.3568 61.4405 52.2294C61.7446 52.0083 61.9006 51.6367 61.8452 51.2649L60.8315 44.4599L65.6516 39.5503C65.9148 39.282 66.0071 38.8897 65.8909 38.5322ZM59.0405 43.4052C58.8189 43.631 58.7161 43.9475 58.7627 44.2602L59.5654 49.6482L54.6892 47.2199C54.5475 47.1494 54.3936 47.1141 54.2396 47.1141C54.0856 47.1141 53.9315 47.1493 53.7901 47.2199L48.9138 49.6482L49.7165 44.2602C49.7632 43.9475 49.6603 43.6308 49.4387 43.4052L45.6224 39.518L50.9946 38.6164C51.3065 38.5641 51.5758 38.3685 51.722 38.088L54.2396 33.2573L56.7571 38.0881C56.9034 38.3686 57.1726 38.5642 57.4845 38.6165L62.8569 39.5181L59.0405 43.4052ZM68.3826 44.2024C68.4556 43.6502 68.9625 43.2614 69.5146 43.3352C70.0667 43.4083 70.455 43.9152 70.3819 44.4671C69.3142 52.5256 62.3745 58.6024 54.2395 58.6024C45.2602 58.6024 37.955 51.2975 37.955 42.3181C37.955 33.3387 45.2602 26.0336 54.2395 26.0336C62.3745 26.0336 69.3142 32.1105 70.3817 40.1689C70.455 40.7209 70.0666 41.2278 69.5146 41.301C68.9634 41.375 68.4556 40.9859 68.3826 40.4338C67.4472 33.374 61.3671 28.0503 54.2395 28.0503C46.3722 28.0503 39.9717 34.4507 39.9717 42.3181C39.9717 50.1854 46.3722 56.5858 54.2395 56.5858C61.367 56.5858 67.4472 51.262 68.3826 44.2024Z" fill="black"></path> <path d="M72.0365 58.0542L72.3137 57.9394L72.3137 57.9394L72.0365 58.0542ZM80.4025 78.2511L80.6796 78.1364L80.6796 78.1363L80.4025 78.2511ZM70.1733 58.826L70.4505 58.7112L70.4505 58.7111L70.1733 58.826ZM77.7363 77.0845L77.6528 77.3726L78.2523 77.5463L78.0135 76.9697L77.7363 77.0845ZM70.8378 75.0856L70.7542 75.3737L70.7543 75.3738L70.8378 75.0856ZM69.674 75.5678L69.9368 75.7125L69.9368 75.7124L69.674 75.5678ZM66.2093 81.8591L65.9322 81.9739L66.171 82.5506L66.4721 82.0038L66.2093 81.8591ZM58.0943 62.2675L58.0375 61.9729L57.6764 62.0426L57.8171 62.3823L58.0943 62.2675ZM74.5574 42.318L74.2574 42.318V42.318H74.5574ZM37.9411 54.4364L38.2183 54.5512L38.2835 54.3938L38.1816 54.2571L37.9411 54.4364ZM28.0768 78.2511L27.7996 78.1363L27.7996 78.1364L28.0768 78.2511ZM28.2571 79.3095L28.4806 79.1095L28.4806 79.1094L28.2571 79.3095ZM29.2891 79.6056L29.3726 79.8937L29.3726 79.8937L29.2891 79.6056ZM37.4278 77.2472L37.6906 77.1025L37.5748 76.8922L37.3443 76.959L37.4278 77.2472ZM41.5151 84.6698L41.2523 84.8145L41.2523 84.8146L41.5151 84.6698ZM42.4541 85.1902L42.4691 85.4899L42.4707 85.4898L42.4541 85.1902ZM43.33 84.5692L43.6072 84.6841L43.6072 84.684L43.33 84.5692ZM51.1464 65.6987L51.4236 65.8135L51.4236 65.8135L51.1464 65.6987ZM49.2832 64.9269L49.5604 65.0417L49.5604 65.0417L49.2832 64.9269ZM42.2696 81.8591L42.0068 82.0038L42.3079 82.5506L42.5468 81.9739L42.2696 81.8591ZM38.8052 75.5678L38.5424 75.7125L38.5424 75.7125L38.8052 75.5678ZM37.6413 75.0856L37.7248 75.3738L37.7249 75.3737L37.6413 75.0856ZM30.7429 77.0845L30.4657 76.9697L30.2269 77.5464L30.8264 77.3726L30.7429 77.0845ZM39.4011 56.1816L39.6203 55.9767L39.3022 55.6365L39.124 56.0668L39.4011 56.1816ZM56.0312 62.556L56.3083 62.4412L56.2241 62.238L56.005 62.2572L56.0312 62.556ZM65.1493 84.5692L65.4265 84.4544L65.4265 84.4544L65.1493 84.5692ZM66.0251 85.1901L66.0423 84.8906L66.0417 84.8906L66.0251 85.1901ZM66.9641 84.6698L66.7013 84.5251L66.7013 84.5251L66.9641 84.6698ZM71.0516 77.2472L71.1351 76.959L70.9045 76.8922L70.7888 77.1025L71.0516 77.2472ZM79.1903 79.6056L79.2738 79.3174L79.2738 79.3174L79.1903 79.6056ZM80.2223 79.3095L79.9988 79.1094L79.9988 79.1094L80.2223 79.3095ZM65.0987 37.8493L65.1484 37.5535L65.1484 37.5535L65.0987 37.8493ZM65.8909 38.5322L65.6056 38.6249L65.6056 38.6249L65.8909 38.5322ZM58.3134 36.7107L58.0474 36.8493L58.1164 36.9818L58.2638 37.0065L58.3134 36.7107ZM55.1338 30.6095L55.3998 30.4708L55.3998 30.4708L55.1338 30.6095ZM53.3453 30.6095L53.0793 30.4708L53.0793 30.4708L53.3453 30.6095ZM50.1656 36.7107L50.2152 37.0065L50.3626 36.9818L50.4316 36.8493L50.1656 36.7107ZM43.3804 37.8493L43.43 38.1452L43.4301 38.1452L43.3804 37.8493ZM42.5882 38.5322L42.3029 38.4395L42.3029 38.4395L42.5882 38.5322ZM42.8277 39.5503L43.0417 39.3401L43.0417 39.3401L42.8277 39.5503ZM47.6477 44.4597L47.9445 44.5039L47.9665 44.3562L47.8618 44.2496L47.6477 44.4597ZM46.634 51.2648L46.9307 51.309L46.9307 51.309L46.634 51.2648ZM47.0387 52.2292L46.8623 52.4719L46.8623 52.4719L47.0387 52.2292ZM48.0808 52.3161L48.2144 52.5847L48.2145 52.5846L48.0808 52.3161ZM54.2396 49.249L54.3733 48.9805L54.2396 48.9139L54.1058 48.9805L54.2396 49.249ZM60.3982 52.3161L60.2645 52.5846L60.2645 52.5847L60.3982 52.3161ZM61.4405 52.2294L61.6168 52.4721L61.6168 52.472L61.4405 52.2294ZM61.8452 51.2649L61.5484 51.3091L61.5484 51.3092L61.8452 51.2649ZM60.8315 44.4599L60.6175 44.2497L60.5128 44.3563L60.5348 44.5041L60.8315 44.4599ZM65.6516 39.5503L65.8657 39.7604L65.8657 39.7604L65.6516 39.5503ZM58.7627 44.2602L59.0595 44.216L59.0595 44.2159L58.7627 44.2602ZM59.0405 43.4052L58.8265 43.1951L58.8264 43.1951L59.0405 43.4052ZM59.5654 49.6482L59.4317 49.9167L59.947 50.1733L59.8621 49.604L59.5654 49.6482ZM54.6892 47.2199L54.8229 46.9513L54.8227 46.9512L54.6892 47.2199ZM53.7901 47.2199L53.9238 47.4884L53.9241 47.4883L53.7901 47.2199ZM48.9138 49.6482L48.6171 49.604L48.5323 50.1733L49.0476 49.9167L48.9138 49.6482ZM49.7165 44.2602L49.4198 44.2159L49.4198 44.216L49.7165 44.2602ZM49.4387 43.4052L49.2247 43.6154L49.2247 43.6154L49.4387 43.4052ZM45.6224 39.518L45.5727 39.2221L45.005 39.3174L45.4083 39.7282L45.6224 39.518ZM50.9946 38.6164L50.945 38.3205L50.9449 38.3205L50.9946 38.6164ZM51.722 38.088L51.4559 37.9493L51.4559 37.9494L51.722 38.088ZM54.2396 33.2573L54.5056 33.1187L54.2396 32.6082L53.9735 33.1187L54.2396 33.2573ZM56.7571 38.0881L56.4911 38.2268L56.4912 38.2269L56.7571 38.0881ZM57.4845 38.6165L57.5342 38.3207L57.5341 38.3206L57.4845 38.6165ZM62.8569 39.5181L63.071 39.7283L63.4743 39.3176L62.9065 39.2223L62.8569 39.5181ZM69.5146 43.3352L69.4749 43.6325L69.4752 43.6326L69.5146 43.3352ZM68.3826 44.2024L68.68 44.2418L68.68 44.2417L68.3826 44.2024ZM70.3819 44.4671L70.0845 44.4277L70.0845 44.4277L70.3819 44.4671ZM70.3817 40.1689L70.0843 40.2083L70.0843 40.2084L70.3817 40.1689ZM69.5146 41.301L69.4752 41.0036L69.4747 41.0036L69.5146 41.301ZM68.3826 40.4338L68.68 40.3944L68.68 40.3943L68.3826 40.4338ZM71.7594 58.169L80.1253 78.3659L80.6796 78.1363L72.3137 57.9394L71.7594 58.169ZM70.8339 57.7856C71.1953 57.6359 71.6097 57.8076 71.7594 58.1691L72.3137 57.9394C72.0372 57.272 71.272 56.9546 70.6042 57.2314L70.8339 57.7856ZM70.4505 58.7111C70.3007 58.3499 70.4723 57.9355 70.8339 57.7856L70.6042 57.2314C69.9367 57.508 69.6194 58.2732 69.8962 58.9409L70.4505 58.7111ZM78.0135 76.9697L70.4505 58.7112L69.8962 58.9408L77.4591 77.1993L78.0135 76.9697ZM70.7543 75.3738L77.6528 77.3726L77.8198 76.7963L70.9213 74.7975L70.7543 75.3738ZM69.9368 75.7124C70.0965 75.4222 70.4362 75.2815 70.7542 75.3737L70.9214 74.7975C70.3337 74.627 69.7062 74.887 69.4111 75.4231L69.9368 75.7124ZM66.4721 82.0038L69.9368 75.7125L69.4112 75.423L65.9465 81.7144L66.4721 82.0038ZM57.8171 62.3823L65.9322 81.9739L66.4865 81.7443L58.3715 62.1527L57.8171 62.3823ZM74.2574 42.318C74.2574 52.0568 67.2655 60.1934 58.0375 61.9729L58.1511 62.5621C67.6556 60.7292 74.8574 52.3502 74.8574 42.318H74.2574ZM54.2396 22.3C65.2773 22.3 74.2575 31.2803 74.2574 42.318L74.8574 42.318C74.8575 30.949 65.6086 21.7 54.2396 21.7V22.3ZM34.2216 42.318C34.2216 31.2804 43.2019 22.3 54.2396 22.3V21.7C42.8706 21.7 33.6216 30.949 33.6216 42.318H34.2216ZM38.1816 54.2571C35.6949 50.9213 34.2216 46.7889 34.2216 42.318H33.6216C33.6216 46.9229 35.1395 51.1802 37.7006 54.6157L38.1816 54.2571ZM28.3539 78.3659L38.2183 54.5512L37.664 54.3216L27.7996 78.1363L28.3539 78.3659ZM28.4806 79.1094C28.299 78.9066 28.2497 78.6176 28.3539 78.3659L27.7996 78.1364C27.6072 78.601 27.698 79.1349 28.0335 79.5096L28.4806 79.1094ZM29.2056 79.3174C28.944 79.3932 28.6621 79.3123 28.4806 79.1095L28.0335 79.5096C28.3688 79.8843 28.8896 80.0336 29.3726 79.8937L29.2056 79.3174ZM37.3443 76.959L29.2056 79.3174L29.3726 79.8937L37.5113 77.5353L37.3443 76.959ZM41.7779 84.5251L37.6906 77.1025L37.165 77.3919L41.2523 84.8145L41.7779 84.5251ZM42.3982 84.8917C42.1413 84.8917 41.9029 84.752 41.7778 84.525L41.2523 84.8146C41.4833 85.2337 41.9233 85.4917 42.3982 85.4917V84.8917ZM42.439 84.8906C42.4246 84.8913 42.411 84.8917 42.3982 84.8917V85.4917C42.4225 85.4917 42.4462 85.491 42.4691 85.4899L42.439 84.8906ZM43.0529 84.4544C42.9486 84.706 42.7094 84.8756 42.4374 84.8907L42.4707 85.4898C42.9729 85.4619 43.4146 85.1487 43.6072 84.6841L43.0529 84.4544ZM50.8693 65.5839L43.0529 84.4544L43.6072 84.684L51.4236 65.8135L50.8693 65.5839ZM50.4859 64.6584C50.8474 64.8081 51.019 65.2224 50.8693 65.5839L51.4236 65.8135C51.7001 65.1459 51.3831 64.3806 50.7155 64.104L50.4859 64.6584ZM49.5604 65.0417C49.7101 64.6803 50.1244 64.5087 50.4859 64.6584L50.7155 64.104C50.0479 63.8275 49.2826 64.1445 49.0061 64.8121L49.5604 65.0417ZM42.5468 81.9739L49.5604 65.0417L49.0061 64.8121L41.9925 81.7443L42.5468 81.9739ZM38.5424 75.7125L42.0068 82.0038L42.5324 81.7144L39.068 75.423L38.5424 75.7125ZM37.7249 75.3737C38.0426 75.2815 38.3826 75.4222 38.5424 75.7125L39.068 75.4231C38.7729 74.887 38.1451 74.627 37.5577 74.7975L37.7249 75.3737ZM30.8264 77.3726L37.7248 75.3738L37.5578 74.7975L30.6594 76.7963L30.8264 77.3726ZM39.124 56.0668L30.4657 76.9697L31.0201 77.1993L39.6783 56.2964L39.124 56.0668ZM54.2396 62.3359C48.4773 62.3359 43.2767 59.8878 39.6203 55.9767L39.182 56.3865C42.9467 60.4134 48.3037 62.9359 54.2396 62.9359V62.3359ZM56.005 62.2572C55.4226 62.3082 54.8341 62.3359 54.2396 62.3359V62.9359C54.8527 62.9359 55.4587 62.9074 56.0574 62.8549L56.005 62.2572ZM65.4265 84.4544L56.3083 62.4412L55.754 62.6708L64.8722 84.684L65.4265 84.4544ZM66.0417 84.8906C65.7699 84.8755 65.5307 84.706 65.4265 84.4544L64.8721 84.684C65.0646 85.1488 65.5065 85.4619 66.0086 85.4896L66.0417 84.8906ZM66.0812 84.8917C66.0683 84.8917 66.0555 84.8914 66.0423 84.8906L66.008 85.4896C66.0324 85.491 66.0567 85.4917 66.0812 85.4917V84.8917ZM66.7013 84.5251C66.5764 84.752 66.3381 84.8917 66.0812 84.8917V85.4917C66.556 85.4917 66.9961 85.2337 67.2269 84.8145L66.7013 84.5251ZM70.7888 77.1025L66.7013 84.5251L67.2269 84.8145L71.3144 77.3919L70.7888 77.1025ZM79.2738 79.3174L71.1351 76.959L70.9681 77.5353L79.1068 79.8937L79.2738 79.3174ZM79.9988 79.1094C79.8171 79.3124 79.5355 79.3933 79.2738 79.3174L79.1068 79.8937C79.5902 80.0338 80.1104 79.8842 80.4458 79.5096L79.9988 79.1094ZM80.1253 78.3659C80.2295 78.6176 80.1803 78.9066 79.9988 79.1094L80.4458 79.5096C80.7814 79.1348 80.872 78.6009 80.6796 78.1364L80.1253 78.3659ZM54.2396 23.7168C43.9826 23.7168 35.6383 32.061 35.6383 42.318H36.2383C36.2383 32.3924 44.314 24.3168 54.2396 24.3168V23.7168ZM72.8407 42.318C72.8407 32.061 64.4966 23.7168 54.2396 23.7168V24.3168C64.1652 24.3168 72.2407 32.3924 72.2407 42.318H72.8407ZM54.2396 60.9191C64.4966 60.9191 72.8407 52.575 72.8407 42.318H72.2407C72.2407 52.2436 64.1652 60.3191 54.2396 60.3191V60.9191ZM35.6383 42.318C35.6383 52.575 43.9826 60.9191 54.2396 60.9191V60.3191C44.314 60.3191 36.2383 52.2436 36.2383 42.318H35.6383ZM65.049 38.1452C65.3095 38.1889 65.5241 38.374 65.6056 38.6249L66.1762 38.4396C66.0256 37.9757 65.6293 37.6342 65.1484 37.5535L65.049 38.1452ZM58.2638 37.0065L65.0491 38.1452L65.1484 37.5535L58.3631 36.4148L58.2638 37.0065ZM54.8678 30.7481L58.0474 36.8493L58.5795 36.572L55.3998 30.4708L54.8678 30.7481ZM54.2396 30.3671C54.5036 30.3671 54.7457 30.5139 54.8678 30.7481L55.3998 30.4708C55.1745 30.0384 54.7273 29.7671 54.2396 29.7671V30.3671ZM53.6114 30.7481C53.7334 30.514 53.9756 30.3671 54.2396 30.3671V29.7671C53.7519 29.7671 53.3047 30.0383 53.0793 30.4708L53.6114 30.7481ZM50.4316 36.8493L53.6114 30.7481L53.0793 30.4708L49.8995 36.572L50.4316 36.8493ZM43.4301 38.1452L50.2152 37.0065L50.1159 36.4148L43.3308 37.5535L43.4301 38.1452ZM42.8735 38.6249C42.9552 38.3737 43.1697 38.1888 43.43 38.1452L43.3308 37.5535C42.8498 37.6341 42.4536 37.9757 42.3029 38.4395L42.8735 38.6249ZM43.0417 39.3401C42.8567 39.1517 42.7919 38.8761 42.8735 38.6249L42.3029 38.4395C42.1522 38.9033 42.2719 39.4124 42.6136 39.7605L43.0417 39.3401ZM47.8618 44.2496L43.0417 39.3401L42.6136 39.7604L47.4337 44.6699L47.8618 44.2496ZM46.9307 51.309L47.9445 44.5039L47.351 44.4155L46.3372 51.2206L46.9307 51.309ZM47.215 51.9865C47.0013 51.8312 46.8918 51.5701 46.9307 51.309L46.3372 51.2206C46.2654 51.703 46.4678 52.1852 46.8623 52.4719L47.215 51.9865ZM47.9471 52.0475C47.7108 52.1651 47.4284 52.1415 47.215 51.9865L46.8623 52.4719C47.2567 52.7584 47.778 52.8018 48.2144 52.5847L47.9471 52.0475ZM54.1058 48.9805L47.9471 52.0475L48.2145 52.5846L54.3733 49.5175L54.1058 48.9805ZM60.5319 52.0475L54.3733 48.9805L54.1058 49.5175L60.2645 52.5846L60.5319 52.0475ZM60.8477 52.1219C60.7401 52.1219 60.6321 52.0974 60.5319 52.0475L60.2645 52.5847C60.4491 52.6765 60.6487 52.7219 60.8477 52.7219V52.1219ZM61.2641 51.9866C61.1409 52.0762 60.9949 52.1219 60.8477 52.1219V52.7219C61.1191 52.7219 61.3891 52.6375 61.6168 52.4721L61.2641 51.9866ZM61.5484 51.3092C61.5873 51.5703 61.4778 51.8313 61.2641 51.9867L61.6168 52.472C62.0114 52.1853 62.2138 51.7031 62.1419 51.2207L61.5484 51.3092ZM60.5348 44.5041L61.5484 51.3091L62.1419 51.2207L61.1283 44.4157L60.5348 44.5041ZM65.4375 39.3401L60.6175 44.2497L61.0456 44.67L65.8657 39.7604L65.4375 39.3401ZM65.6056 38.6249C65.6872 38.8761 65.6224 39.1517 65.4375 39.3401L65.8657 39.7604C66.2073 39.4124 66.3269 38.9033 66.1762 38.4395L65.6056 38.6249ZM59.0595 44.2159C59.0267 43.9964 59.0989 43.774 59.2546 43.6154L58.8264 43.1951C58.539 43.4879 58.4055 43.8986 58.466 44.3045L59.0595 44.2159ZM59.8621 49.604L59.0595 44.216L58.466 44.3044L59.2687 49.6924L59.8621 49.604ZM54.5554 47.4884L59.4317 49.9167L59.6991 49.3796L54.8229 46.9513L54.5554 47.4884ZM54.2396 47.4141C54.3477 47.4141 54.4557 47.4388 54.5556 47.4885L54.8227 46.9512C54.6392 46.86 54.4396 46.8141 54.2396 46.8141V47.4141ZM53.9241 47.4883C54.0232 47.4388 54.1313 47.4141 54.2396 47.4141V46.8141C54.0399 46.8141 53.8399 46.8597 53.6561 46.9514L53.9241 47.4883ZM49.0476 49.9167L53.9238 47.4884L53.6564 46.9513L48.7801 49.3796L49.0476 49.9167ZM49.4198 44.216L48.6171 49.604L49.2106 49.6924L50.0132 44.3044L49.4198 44.216ZM49.2247 43.6154C49.3803 43.7739 49.4526 43.9963 49.4198 44.2159L50.0132 44.3045C50.0738 43.8987 49.9403 43.4878 49.6528 43.195L49.2247 43.6154ZM45.4083 39.7282L49.2247 43.6154L49.6528 43.1951L45.8364 39.3078L45.4083 39.7282ZM50.9449 38.3205L45.5727 39.2221L45.672 39.8139L51.0443 38.9122L50.9449 38.3205ZM51.4559 37.9494C51.3533 38.1463 51.1641 38.2838 50.945 38.3205L51.0442 38.9123C51.4489 38.8444 51.7984 38.5906 51.988 38.2266L51.4559 37.9494ZM53.9735 33.1187L51.4559 37.9493L51.988 38.2266L54.5056 33.396L53.9735 33.1187ZM57.0232 37.9495L54.5056 33.1187L53.9735 33.396L56.4911 38.2268L57.0232 37.9495ZM57.5341 38.3206C57.3151 38.2839 57.126 38.1465 57.0231 37.9494L56.4912 38.2269C56.6809 38.5906 57.0301 38.8445 57.4349 38.9124L57.5341 38.3206ZM62.9065 39.2223L57.5342 38.3207L57.4349 38.9124L62.8072 39.814L62.9065 39.2223ZM59.2546 43.6154L63.071 39.7283L62.6428 39.308L58.8265 43.1951L59.2546 43.6154ZM69.5544 43.0378C68.8374 42.942 68.1799 43.4468 68.0852 44.1631L68.68 44.2417C68.7313 43.8536 69.0875 43.5808 69.4749 43.6325L69.5544 43.0378ZM70.6793 44.5065C70.7742 43.7903 70.2703 43.1327 69.5541 43.0378L69.4752 43.6326C69.8631 43.684 70.1358 44.0401 70.0845 44.4277L70.6793 44.5065ZM54.2395 58.9024C62.5248 58.9024 69.5918 52.7143 70.6793 44.5065L70.0845 44.4277C69.0366 52.3368 62.2242 58.3024 54.2395 58.3024V58.9024ZM37.655 42.3181C37.655 51.4632 45.0945 58.9024 54.2395 58.9024V58.3024C45.4259 58.3024 38.255 51.1318 38.255 42.3181H37.655ZM54.2395 25.7336C45.0945 25.7336 37.655 33.173 37.655 42.3181H38.255C38.255 33.5044 45.4259 26.3336 54.2395 26.3336V25.7336ZM70.6791 40.1295C69.5918 31.9217 62.5248 25.7336 54.2395 25.7336V26.3336C62.2242 26.3336 69.0366 32.2992 70.0843 40.2083L70.6791 40.1295ZM69.5541 41.5984C70.2702 41.5035 70.7742 40.8458 70.6791 40.1294L70.0843 40.2084C70.1358 40.5961 69.863 40.9522 69.4752 41.0036L69.5541 41.5984ZM68.0852 40.4731C68.1799 41.1893 68.8384 41.6945 69.5546 41.5983L69.4747 41.0036C69.0884 41.0555 68.7313 40.7826 68.68 40.3944L68.0852 40.4731ZM54.2395 28.3503C61.2168 28.3503 67.1696 33.5628 68.0852 40.4732L68.68 40.3943C67.7248 33.1853 61.5173 27.7503 54.2395 27.7503V28.3503ZM40.2717 42.3181C40.2717 34.6164 46.5379 28.3503 54.2395 28.3503V27.7503C46.2065 27.7503 39.6717 34.285 39.6717 42.3181H40.2717ZM54.2395 56.2858C46.5379 56.2858 40.2717 50.0198 40.2717 42.3181H39.6717C39.6717 50.3511 46.2065 56.8858 54.2395 56.8858V56.2858ZM68.0852 44.163C67.1696 51.0732 61.2167 56.2858 54.2395 56.2858V56.8858C61.5172 56.8858 67.7248 51.4507 68.68 44.2418L68.0852 44.163Z" fill="#FFFAF9" mask="url(#path-2-inside-1)"></path> </svg> 